<?xml version="1.0" encoding="utf-8"?>
<!-- Generator: Adobe Illustrator 25.4.1, SVG Export Plug-In . SVG Version: 6.00 Build 0)  -->
<svg version="1.1" id="Layer_1" xmlns="http://www.w3.org/2000/svg" xmlns:xlink="http://www.w3.org/1999/xlink" x="0px" y="0px"
	 viewBox="0 0 841.9 199.5" style="enable-background:new 0 0 841.9 199.5;" xml:space="preserve">
<style type="text/css">
	.st0{fill:#40B7DB;}
	.st1{opacity:0.9;}
	.st2{filter:url(#Adobe_OpacityMaskFilter);}
	.st3{fill:url(#SVGID_00000045598504489346730900000008651376640051287191_);}
	.st4{mask:url(#SVGID_00000046337313922071243460000010896635488354867329_);}
	.st5{opacity:0.3;}
	.st6{fill:#9CD9DE;}
	.st7{fill:#22A3D8;}
	.st8{fill:none;}
	.st9{fill:#211E1F;}
	.st10{font-family:'WorkSans-Medium';}
	.st11{font-size:9.1463px;}
	.st12{letter-spacing:3;}
	.st13{fill:#278ACB;}
	.st14{fill:#F0A51F;}
</style>
<g>
	<rect y="1109.5" class="st0" width="841.9" height="81"/>
	<g class="st1">
		<defs>
			<rect id="SVGID_1_" y="1109.5" class="st1" width="841.9" height="81"/>
		</defs>
		<clipPath id="SVGID_00000171708815068802180720000001517693206035745681_">
			<use xlink:href="#SVGID_1_"  style="overflow:visible;"/>
		</clipPath>
		<g style="clip-path:url(#SVGID_00000171708815068802180720000001517693206035745681_);">
			
				<image style="overflow:visible;" width="1600" height="800" xlink:href="44CF3AD.jpg"  transform="matrix(0.5327 0 0 0.4754 -1.3342 984.1372)">
			</image>
		</g>
	</g>
</g>
<defs>
	<filter id="Adobe_OpacityMaskFilter" filterUnits="userSpaceOnUse" x="-183.3" y="-109.7" width="464.5" height="386.9">
		<feColorMatrix  type="matrix" values="1 0 0 0 0  0 1 0 0 0  0 0 1 0 0  0 0 0 1 0"/>
	</filter>
</defs>
<mask maskUnits="userSpaceOnUse" x="-183.3" y="-109.7" width="464.5" height="386.9" id="SVGID_00000047044532584575805520000006497408980318029704_">
	<g class="st2">
		
			<radialGradient id="SVGID_00000036244108876739236820000006234839726767466928_" cx="-624.9315" cy="-489.7763" r="154.7027" gradientTransform="matrix(-0.9695 -0.2449 0.2449 -0.9695 -408.3485 -558.8683)" gradientUnits="userSpaceOnUse">
			<stop  offset="0" style="stop-color:#FFFFFF"/>
			<stop  offset="0.2878" style="stop-color:#939090"/>
			<stop  offset="0.6344" style="stop-color:#434140"/>
			<stop  offset="0.8802" style="stop-color:#181818"/>
			<stop  offset="1" style="stop-color:#010101"/>
		</radialGradient>
		<polygon style="fill:url(#SVGID_00000036244108876739236820000006234839726767466928_);" points="-34.2,-119 265.3,-43.3 
			189.4,257.1 -110.1,181.5 		"/>
	</g>
</mask>
<g style="mask:url(#SVGID_00000047044532584575805520000006497408980318029704_);">
	<g>
		<g class="st5">
			<path class="st6" d="M54.1,47.4l-0.1,0l-0.3-0.2l22.4-90.7l0.3-0.6l50.9,66.7l0.2,0.2L54.1,47.4z M54.2,46.9l72.6-24.3l-50.3-66
				L54.2,46.9z"/>
			<path class="st6" d="M127.3,22.9l-0.2,0.1L76.3-43.6l-0.1-0.1l0.2-0.3l96.6,19.8l0.4,0.1L127.3,22.9z M127.2,22.5l21.9-22.3l0,0
				l0.2-0.1l23.4-23.9L76.9-43.5L127.2,22.5z"/>
			<path class="st6" d="M226.2-40.8L226.2-40.8l-53.1,17l-0.5,0.2l43.8-74l0.1-0.2L246.5-74l13.5,22.5L226.2-40.8z M216.6-97.3
				l-43.1,72.9L225.6-41l-0.1-0.2l0.4,0.1l33.3-10.6l-13.1-22L216.6-97.3z"/>
			<path class="st6" d="M198.4,61.4l-5.4-52l0-0.3l42.2,15l0.3,0.1L198.4,61.4z M198.7,60.5l36-36.1L193.5,9.7L198.7,60.5z"/>
			<path class="st6" d="M239.3,75.3l0,0.3l-40.8-14.2l-0.1,0l0-0.4L235,24.1l0.3-0.3L239.3,75.3z M238.9,75L235,24.8L198.8,61
				L238.9,75z"/>
			<path class="st6" d="M-1.9,196l0,0.2l-80,10.3l-0.6,0.1l73.2-73.4l0.3-0.3L-1.9,196z M-2.4,195.8l-6.9-62L-81.3,206L-2.4,195.8z"
				/>
			<path class="st6" d="M164.9,119.6l0.2,0.5L54.1,47.5l-0.7-0.4l93.7,7l0.2,0L164.9,119.6z M164.3,119.2L147,54.4l-92-6.9
				L164.3,119.2z"/>
			<path class="st6" d="M-81.8,206.2l0.1,0.3l-54.8,2.7l-0.3,0l28.8-85.7l0.2-0.6L-81.8,206.2z M-82.2,206l-25.6-81.8l-28.4,84.5
				L-82.2,206z"/>
			<path class="st6" d="M-81.8,206.4l-0.2,0.3l-26-83l-0.1-0.3l99,9.8l0.4,0.1L-81.8,206.4z M-81.9,205.9l72.3-72.4l-97.9-9.7
				L-81.9,205.9z"/>
			<path class="st6" d="M278.8,51.5l0.5,0.8L235,24.5l-0.2-0.1l37.3-35l0.3-0.3L278.8,51.5z M278.4,51.2l-6.3-61.3l-36.6,34.4
				L278.4,51.2z"/>
			<path class="st6" d="M28,201.3l0,0.1l-0.1,0.2l-0.3,0.2l-29.9-5.6l-7.2-63.9L28,201.3z M27.5,201.3l-36.3-67l6.9,61.5L27.5,201.3
				z"/>
			<path class="st6" d="M97.7,159.7l0.1,0.2l-0.3,0.2L-9.2,133.5l-0.3-0.1L54,46.8L97.7,159.7z M97.1,159.5L53.9,47.7l-62.6,85.4
				L97.1,159.5z"/>
			<path class="st6" d="M202.5,97.2l-0.1,0.4L147,54.4l-0.2-0.2l46.3-45l0.3-0.3L202.5,97.2z M202,96.8l-3.6-35.5l-0.4-0.1l0.3-0.3
				l-5.3-51.1l-45.6,44.4L202,96.8z"/>
			<path class="st6" d="M27.9,201.6l-0.4,0.2l0.1-0.4l-37.3-68.7l58,36.2l0.3,0.2L27.9,201.6z M27.8,201.1l19.9-32L-8.6,134
				L27.8,201.1z"/>
			<path class="st6" d="M-93.2,273.7l0,0.1l-3.6,2.1l-39.9-66.9l-0.1-0.2l0.2-0.1l54.9-2.8L-93.2,273.7z M-96.7,275.4l3.1-1.8
				l11.5-67.1l-54,2.7L-96.7,275.4z"/>
			<path class="st6" d="M-136.3,209.1l-0.2,0.4l-43.1-72.1l0-0.3l71.6-13.7l0.4-0.1L-136.3,209.1z M-136.6,208.6l28.5-84.7
				l-70.9,13.5L-136.6,208.6z"/>
			<path class="st6" d="M-9,133.4l-0.2,0.3l-25-69.7l-0.1-0.2l88.2-16.7l0.5-0.1L-9,133.4z M-9.1,132.9l62.5-85.3l-87.2,16.5
				L-9.1,132.9z"/>
			<path class="st6" d="M235.1,24.6l-22.5-45.2l-0.2-0.4l59.9,10.2l0.4,0.1L235.1,24.6z M235.2,23.9l36.6-34.3l-58.6-10L235.2,23.9z
				"/>
			<path class="st6" d="M147.3,54.3l0,0.7l-20.3-32l-0.1-0.2L149.2,0l0.4-0.4L147.3,54.3z M146.9,53.6l2.2-52.9l-21.7,22.1
				L146.9,53.6z"/>
			<path class="st6" d="M54.2,47.5l-0.7-0.3l73.6-24.6l0.2,0l20,31.6l0.2,0.3L54.2,47.5z M55,47.2l91.7,6.8l-19.6-31L55,47.2z"/>
			<path class="st6" d="M235.3,24.2l0.2,0.5L193.2,9.5l-0.2-0.1l19.6-30.3l0.2-0.3L235.3,24.2z M234.7,23.9l-22-44.2L193.6,9.3
				L234.7,23.9z"/>
			<path class="st6" d="M193.4,9.5l-0.2,0.3l-20.4-33.7l-0.1-0.2l53.1-16.9l0.6-0.2L193.4,9.5z M193.3,9l32.1-49.5l-52,16.6L193.3,9
				z"/>
			<path class="st6" d="M149.4,0.3L149,0.2l24.1-24.5l20.4,33.6l0.2,0.4L149.4,0.3z M149.8,0l43,9.1L173-23.7L149.8,0z"/>
			<path class="st6" d="M147.3,54.4l-0.4,0.4l2.3-54.7l0.1-0.3l44,9.3l0.4,0.1L147.3,54.4z M147.4,53.7l45.5-44.2l-43.2-9.2
				L147.4,53.7z"/>
			<path class="st6" d="M-8.9,133.3l0.1,0.3l-99-9.8l-0.5,0l74.2-59.9l0.2-0.2L-8.9,133.3z M-9.5,133l-24.7-68.8l-73.1,59.1
				L-9.5,133z"/>
			<path class="st6" d="M272.4-10.6l0,0.4l-46.6-30.5l-0.4-0.2l34.1-10.9l0.2-0.1l11.7,19.6L272.4-10.6z M226.4-40.8L272-11l-1-21.2
				l-11.4-19.2L226.4-40.8z"/>
			<path class="st6" d="M212.7-20.5l-0.3-0.1L225.7-41l0.2-0.2l46.4,30.4l0.8,0.6L212.7-20.5z M213.1-20.8l58.1,9.9L226-40.6
				L213.1-20.8z"/>
			<path class="st6" d="M214.5-96.3c0.8,1.3,2.4,1.7,3.6,0.9c1.3-0.8,1.7-2.4,0.9-3.6c-0.8-1.3-2.4-1.7-3.6-0.9
				C214.2-99.2,213.8-97.6,214.5-96.3z"/>
			<path class="st6" d="M170.3-22.6c0.7,1.2,2.3,1.7,3.6,0.9c1.3-0.8,1.7-2.4,0.9-3.6c-0.8-1.3-2.4-1.7-3.6-0.9
				C170-25.5,169.6-23.9,170.3-22.6z"/>
			<path class="st6" d="M191.3,10.8c0.8,1.3,2.3,1.7,3.6,0.9c1.3-0.7,1.7-2.3,0.9-3.6c-0.7-1.2-2.4-1.6-3.6-0.9
				C190.9,7.9,190.6,9.6,191.3,10.8z"/>
			<path class="st6" d="M232.3,25.6c0.8,1.3,2.4,1.7,3.6,0.9c1.3-0.8,1.7-2.4,0.9-3.6c-0.8-1.3-2.3-1.7-3.6-0.9
				C232,22.8,231.5,24.4,232.3,25.6z"/>
			<path class="st6" d="M269.6-9.8c0.8,1.3,2.4,1.7,3.6,0.9c1.3-0.8,1.7-2.4,0.9-3.6c-0.7-1.2-2.4-1.7-3.6-0.9
				C269.3-12.6,268.9-11,269.6-9.8z"/>
			<path class="st6" d="M196.8,62c0.8,1.3,2.4,1.7,3.6,0.9c1.3-0.8,1.7-2.3,0.9-3.6c-0.8-1.3-2.4-1.7-3.6-0.9
				C196.4,59.1,196,60.7,196.8,62z"/>
			<path class="st6" d="M146.9,1.2c0.7,1.3,2.4,1.7,3.6,0.9c1.3-0.8,1.7-2.4,0.9-3.6c-0.8-1.3-2.4-1.7-3.6-0.9
				C146.5-1.7,146.1-0.1,146.9,1.2z"/>
			<path class="st6" d="M124.8,24.4c0.7,1.3,2.4,1.7,3.6,0.9c1.3-0.8,1.7-2.4,0.9-3.6c-0.7-1.2-2.4-1.6-3.6-0.9
				C124.5,21.6,124.1,23.2,124.8,24.4z"/>
			<path class="st6" d="M144.8,55.4c0.8,1.3,2.4,1.7,3.6,0.9c1.3-0.8,1.7-2.4,0.9-3.6c-0.8-1.3-2.3-1.7-3.6-0.9
				C144.5,52.5,144.1,54.1,144.8,55.4z"/>
			<path class="st6" d="M162.4,120.8c0.8,1.3,2.4,1.7,3.6,0.9c1.3-0.8,1.7-2.4,0.9-3.7c-0.7-1.3-2.4-1.6-3.6-0.9
				C162.1,117.9,161.7,119.5,162.4,120.8z"/>
			<path class="st6" d="M200.2,98.6c0.7,1.3,2.4,1.7,3.6,0.9c1.3-0.8,1.7-2.3,0.9-3.6c-0.8-1.3-2.4-1.7-3.6-0.9
				C199.9,95.7,199.5,97.3,200.2,98.6z"/>
			<path class="st6" d="M237,76.4c0.6,1.1,1.9,1.4,3,0.8c1.1-0.6,1.4-1.9,0.8-3c-0.6-1-2-1.4-3-0.8C236.7,74,236.4,75.3,237,76.4z"
				/>
			<path class="st6" d="M276.5,52.4c0.6,1.1,2,1.4,3,0.8c1.1-0.6,1.4-2,0.8-3c-0.6-1.1-2-1.4-3-0.7C276.2,50,275.8,51.3,276.5,52.4z
				"/>
			<path class="st6" d="M95.6,161.2c0.6,1.1,2,1.4,3,0.8c1.1-0.6,1.4-2,0.7-3c-0.6-1-2-1.4-3-0.8C95.3,158.8,95,160.1,95.6,161.2z"
				/>
			<path class="st6" d="M46.4,170.3c0.6,1.1,2,1.4,3,0.8c1-0.6,1.4-2,0.7-3c-0.6-1-2-1.4-3-0.8C46.1,167.9,45.8,169.3,46.4,170.3z"
				/>
			<path class="st6" d="M25.7,202.9c0.6,1.1,2,1.4,3,0.8c1.1-0.6,1.4-2,0.8-3c-0.6-1-2-1.4-3-0.8C25.4,200.5,25.1,201.8,25.7,202.9z
				"/>
			<path class="st6" d="M-30.9,236.3c0.6,1.1,2,1.4,3,0.8c1.1-0.6,1.4-2,0.7-3c-0.6-1-1.9-1.4-3-0.8
				C-31.3,233.9-31.6,235.3-30.9,236.3z"/>
			<path class="st6" d="M-4.3,196.9c0.6,1.1,2,1.4,3,0.8c1.1-0.6,1.4-2,0.8-3c-0.6-1.1-2-1.4-3-0.8C-4.6,194.5-4.9,195.9-4.3,196.9z
				"/>
			<path class="st6" d="M51.6,48.8c0.8,1.3,2.4,1.7,3.6,0.9c1.3-0.8,1.7-2.4,0.9-3.6c-0.8-1.3-2.4-1.7-3.6-0.9
				C51.2,45.9,50.8,47.5,51.6,48.8z"/>
			<path class="st6" d="M-11.6,135.1c0.8,1.3,2.4,1.7,3.6,0.9c1.3-0.7,1.7-2.4,0.9-3.6c-0.7-1.3-2.4-1.7-3.6-0.9
				C-11.9,132.3-12.3,133.9-11.6,135.1z"/>
			<path class="st6" d="M-84.5,207.9c0.8,1.3,2.4,1.7,3.6,0.9c1.3-0.8,1.7-2.3,0.9-3.6c-0.7-1.2-2.3-1.7-3.6-0.9
				C-84.9,205.1-85.3,206.7-84.5,207.9z"/>
			<path class="st6" d="M-138,210.7c0.8,1.3,2.3,1.7,3.6,0.9c1.3-0.8,1.6-2.4,0.9-3.6c-0.7-1.3-2.3-1.7-3.6-0.9
				C-138.3,207.9-138.7,209.5-138,210.7z"/>
			<path class="st6" d="M-97.8,275.9c0.7,1.3,2.3,1.7,3.6,0.9c1.3-0.7,1.7-2.3,0.9-3.6c-0.8-1.2-2.4-1.7-3.6-0.9
				C-98.2,273-98.5,274.6-97.8,275.9z"/>
			<path class="st6" d="M210.1-19.6c0.8,1.3,2.4,1.7,3.6,0.9c1.3-0.8,1.7-2.4,0.9-3.6c-0.8-1.3-2.4-1.7-3.6-0.9
				C209.8-22.5,209.4-20.9,210.1-19.6z"/>
			<path class="st6" d="M223.7-39.6c0.8,1.3,2.4,1.7,3.6,0.9c1.3-0.8,1.6-2.4,0.9-3.6c-0.8-1.3-2.3-1.7-3.6-0.9
				C223.4-42.5,223-40.9,223.7-39.6z"/>
			<path class="st6" d="M257.5-50.6c0.5,0.9,1.6,1.1,2.4,0.6c0.8-0.5,1.1-1.6,0.6-2.4c-0.5-0.8-1.6-1.1-2.4-0.6
				C257.3-52.5,257-51.4,257.5-50.6z"/>
			<path class="st6" d="M73.8-42.1c0.8,1.3,2.4,1.7,3.6,0.9c1.3-0.8,1.7-2.4,0.9-3.6c-0.7-1.3-2.4-1.7-3.6-0.9
				C73.5-45,73.1-43.4,73.8-42.1z"/>
			<path class="st6" d="M-36.5,65.6c0.7,1.3,2.4,1.7,3.6,0.9c1.3-0.8,1.6-2.4,0.9-3.6c-0.8-1.3-2.3-1.7-3.6-0.9
				C-36.8,62.8-37.2,64.4-36.5,65.6z"/>
			<path class="st6" d="M-109.8,125.2c0.8,1.2,2.4,1.6,3.6,0.9c1.3-0.8,1.7-2.4,0.9-3.6c-0.7-1.3-2.3-1.7-3.6-0.9
				C-110.1,122.4-110.5,124-109.8,125.2z"/>
			<path class="st6" d="M-181.8,138c0.8,1.3,2.3,1.7,3.6,0.9c1.3-0.8,1.7-2.3,0.9-3.6c-0.7-1.2-2.4-1.7-3.6-0.9
				C-182.1,135.2-182.5,136.8-181.8,138z"/>
			<polygon class="st6" points="-2.2,195.8 -2,195.7 -1.9,196 -2.1,196.5 -2.2,196.2 -81.3,206.4 -28.9,234.9 -28.7,234.8 
				-28.9,235.4 -82,206.4 -82.6,206.1 			"/>
			<polygon class="st6" points="-29.2,234.9 -2.4,196 -2.1,196.2 -28.9,235.4 			"/>
		</g>
		<path class="st7" d="M140.9,67.4l-0.7,0.4l29-49.1l0.1-0.1l47.7,5.6l0.7,0.1L140.9,67.4z M141.4,66.7l74.9-42.2L169.5,19
			L141.4,66.7z"/>
		<path class="st7" d="M118.8,156.9l-0.1,0.2l-22.3-14.6l-0.2-0.1l44.1-74.8l0.7-1.2L118.8,156.9z M118.4,156.5L140,69.1l-43.2,73.3
			L118.4,156.5z"/>
		<path class="st7" d="M235.9,87l-0.2,0.4l-18.9-62.9l-0.1-0.2l61.8-9.9l0.1,0l0.2,0.3L235.9,87z M235.8,86.3l42.4-71.6l-61,9.8
			L235.8,86.3z"/>
		<path class="st7" d="M235.9,86.8l0.1,0.4l-95.3-19.6l-0.3,0l0.2-0.5l76.1-42.9l0.2-0.1L235.9,86.8z M235.4,86.6l-18.6-61.9
			l-75.6,42.6L235.4,86.6z"/>
		<path class="st7" d="M141,67.4l-0.2,0.2l-0.1,0.3l-44,74.6l-0.5,1L111.3,49l0-0.1l57.8-30.3l0.1,0l0.5,0.1L141,67.4z M96.9,141.4
			l43.4-73.6l0.1-0.5l0.2-0.1l28.2-47.9l-57.1,30L96.9,141.4z"/>
		<path class="st7" d="M217.1,24.3l0.1,0.3L169.4,19L169,19l0.3-0.5L209.7-14l0.3-0.2L217.1,24.3z M216.7,24.1l-7-37.5l-39.9,32
			L216.7,24.1z"/>
		<path class="st7" d="M216.1,24.7L256-3.6l0.1-0.1l22.6,18l0.3,0.3L216.1,24.7z M217.8,24l60.3-9.6l-22-17.5L217.8,24z"/>
		<path class="st7" d="M169.7,18.7l-0.4,0.3L123.5,9L123,8.9l83-52.4l0.7-0.5L169.7,18.7z M169.2,18.5l0.1-0.1l36-61.1L124.1,8.7
			L169.2,18.5z"/>
		<path class="st7" d="M209.8-13.6l-1-0.2l28.1-4.8l-0.1-0.5L256.9-3L209.8-13.6z M210.9-13.8l44.3,10l-18-14.4L210.9-13.8z"/>
		<path class="st7" d="M217.1,24.5l-0.3,0.2l-7.2-38.5l-0.1-0.3l46.6,10.5l0.4,0.1L217.1,24.5z M217.1,24l38.5-27.3l-45.5-10.2
			L217.1,24z"/>
		<path class="st7" d="M237.3-18.6l0.1,0.5l-31.5-25.1l-0.1-0.1l12.6-64.7L237.3-18.6z M236.8-19.1l-18.4-86.7l-12.1,62.4
			L236.8-19.1z"/>
		<path class="st7" d="M206.2-43.3l0,0.2L91.5-61.7l-0.8-0.1l127.6-45.2l0.3-0.1L206.2-43.3z M205.9-43.5l12.2-63L92.4-62
			L205.9-43.5z"/>
		<path class="st7" d="M111.8,49.1l0,0.1l-59.8,4.4l71.8-45.3L111.8,49.1z M111.4,48.9L123,9.4L53.5,53.2L111.4,48.9z"/>
		<path class="st7" d="M123.6,8.9L123.6,8.9L123.6,8.9L52.8,53.6l-0.2,0.1L36.8,1.4l-0.1-0.2L206-43.5l1.3-0.3L123.6,8.9z
			 M52.8,53.1l70.4-44.4l0.1-0.3l0.3,0.1l81.3-51.4L37.3,1.5L52.8,53.1z"/>
		<path class="st7" d="M96.7,143.1L52.5,53.6l-0.1-0.3l59.2-4.4l0.3,0L96.7,143.1z M96.5,141.7l14.9-92.4L53,53.6L96.5,141.7z"/>
		<path class="st7" d="M52.9,53.4l0.2,0.7L20.2,22.8l-0.1-0.1L36.8,1.2l0.3-0.3L52.9,53.4z M52.3,52.7L36.9,1.8L20.6,22.6L52.3,52.7
			z"/>
		<path class="st7" d="M-21.1,75.9l-0.6,0.2l41.9-53.6l0.1-0.2l32.5,30.9l0.2,0.3L-21.1,75.9z M-20.6,75.3l72.9-22L20.4,23
			L-20.6,75.3z"/>
		<path class="st7" d="M32.1,173.6l-0.3,0.2l7.5-43.7l0.1-0.2l57.3,12.4l0.6,0.1L32.1,173.6z M32.3,173l63.6-30.5l-56.2-12.1
			L32.3,173z"/>
		<path class="st7" d="M39.7,130.1l-0.1,0.2l-74.6,7.3l-0.1,0l-0.4-0.2l88-84.1l0.5-0.4L39.7,130.1z M39.3,129.9L52.4,54l-87,83.1
			L39.3,129.9z"/>
		<path class="st7" d="M32.2,173.4l-0.1,0.3l-67.3-36.1l-0.6-0.3l75.2-7.3l0.3,0L32.2,173.4z M31.9,173.1l7.4-42.7l-73.6,7.2
			L31.9,173.1z"/>
		<path class="st7" d="M96.7,142.3l0.2,0.4l-57.5-12.4l-0.2,0l13.2-76.9l0.1-0.6L96.7,142.3z M96.2,142.1l-43.4-88l-13,75.9
			L96.2,142.1z"/>
		<path class="st7" d="M111.7,49.3l-0.4,0.2l11.9-40.7l0-0.1l0.3-0.2l45.8,10l0.6,0.1L111.7,49.3z M123.5,9l-11.6,39.6l56.8-29.8
			L123.5,9L123.5,9z"/>
		<path class="st7" d="M37,1.6l-0.6,0.2l55-63.9L206-43.5l1,0.2L37,1.6z M37.6,1l167.5-44.3L91.6-61.7L37.6,1z"/>
		<path class="st7" d="M20.4,23L4,7.4L3.7,7.1l33.2-6l0.5-0.1L20.4,23z M20.3,22.3L36.5,1.6L4.6,7.4L20.3,22.3z"/>
		<path class="st7" d="M-169.7,146.9l-0.2,0.1l-0.2-0.3l-0.4-22.5l0-0.2l66.9-23.7l1.5-0.5L-169.7,146.9z M-169.7,146.3l64.7-45
			l-65.1,23.1L-169.7,146.3z"/>
		<path class="st7" d="M-169.7,146.7l0,0.8l-11.6-19.5l10.9-3.9l0.3-0.1L-169.7,146.7z M-170.1,145.9l-0.4-21.3l-10.2,3.6
			L-170.1,145.9z"/>
		<path class="st7" d="M-110.6,245.5l-0.1,0.8l-0.3-0.5l-0.5,0.3l0.3-0.6l-59-98.9l66.4-46.2l0.4-0.2L-110.6,245.5z M-111,244.9
			l7.2-143.9l-65.7,45.8L-111,244.9z"/>
		<path class="st7" d="M118.7,157.2l-86.6,16.5l-1.6,0.3l65.9-31.6l0.1-0.1l22.1,14.5l0.1,0.1L118.7,157.2z M33.6,172.9l84.7-16
			l-21.7-14.2L33.6,172.9z"/>
		<path class="st7" d="M-35,137.5l-0.1,0.1l-68.6-36.8l-0.5-0.2l82.9-24.9l0,0l73.9-22.3l0.8-0.2L-35,137.5z M-21.1,76.3l-0.2-0.3
			l-81.8,24.7l67.9,36.4l87.1-83.2l-72.9,22L-21.1,76.3z"/>
		<path class="st7" d="M-40.4,232.2l-0.4,0.2l5.4-95.1l0-0.2l0.4,0l67.4,36.1L-40.4,232.2z M-40.3,231.6l72-58.2L-35,137.6
			L-40.3,231.6z"/>
		<path class="st7" d="M-40.4,232.1l0,0.2l-70.5,13.5l-0.3,0l0.1-0.3l75.7-108.1l0.4-0.6L-40.4,232.1z M-40.7,231.9l5.3-93.8
			l-75,107.1L-40.7,231.9z"/>
		<path class="st7" d="M-35,137.5l-76.1,108.7l7.3-145.6l0-0.3l68.8,36.9l0.2,0.1L-35,137.5z M-110.6,244.7l75.2-107.3l-67.9-36.4
			L-110.6,244.7z"/>
		<path class="st7" d="M210-13.8l0,0.1l-40.4,32.5l-0.9,0.7l37.1-62.9l0.3-0.5L210-13.8z M209.6-13.9l-3.7-28.8l-35.6,60.4
			L209.6-13.9z"/>
		<path class="st7" d="M237.4-18.3l-27.5,4.7l-0.2,0l-3.8-29.7l-0.1-0.5l31.4,25.1l0,0L237.4-18.3z M210-14.1l26.8-4.5l-30.5-24.2
			L210-14.1z"/>
		<path class="st7" d="M256.3-3.5l0.5,0.9l-19.8-15.8l-0.1-0.1L228.7-57L256.3-3.5z M255.5-4.2l-25.7-49.9l7.5,35.4L255.5-4.2z"/>
		<path class="st7" d="M89.5-60.5c0.7,1.2,2.3,1.6,3.6,0.9c1.2-0.7,1.6-2.3,0.9-3.5c-0.7-1.3-2.3-1.7-3.6-0.9
			C89.1-63.4,88.7-61.8,89.5-60.5z"/>
		<path class="st7" d="M203.3-41.4c0.7,1.2,2.3,1.6,3.6,0.9c1.3-0.8,1.6-2.3,0.9-3.6c-0.8-1.3-2.3-1.7-3.6-0.9
			C203-44.2,202.6-42.6,203.3-41.4z"/>
		<path class="st7" d="M207.3-12.4c0.7,1.2,2.3,1.6,3.5,0.9c1.3-0.7,1.6-2.3,0.9-3.6c-0.7-1.2-2.3-1.6-3.6-0.9
			C207-15.2,206.6-13.6,207.3-12.4z"/>
		<path class="st7" d="M227.7-53.6c0.7,1.2,2.3,1.6,3.6,0.9c1.2-0.7,1.6-2.3,0.9-3.6c-0.8-1.3-2.3-1.7-3.6-0.9
			C227.3-56.5,226.9-54.9,227.7-53.6z"/>
		<path class="st7" d="M216.1-105.7c0.7,1.3,2.3,1.7,3.6,0.9c1.2-0.7,1.6-2.3,0.9-3.6c-0.7-1.2-2.3-1.6-3.5-0.9
			C215.7-108.5,215.3-107,216.1-105.7z"/>
		<path class="st7" d="M120.8,10.7c0.7,1.2,2.3,1.7,3.6,0.9c1.2-0.7,1.6-2.4,0.9-3.6c-0.7-1.2-2.3-1.6-3.6-0.9
			C120.4,7.9,120,9.5,120.8,10.7z"/>
		<path class="st7" d="M166.7,19.9c0.7,1.2,2.3,1.7,3.6,0.9c1.2-0.7,1.6-2.4,0.9-3.6c-0.7-1.2-2.3-1.6-3.6-0.9
			C166.3,17.1,166,18.7,166.7,19.9z"/>
		<path class="st7" d="M253.9-1.8c0.8,1.3,2.3,1.7,3.6,0.9c1.3-0.7,1.7-2.3,0.9-3.6c-0.7-1.2-2.3-1.6-3.6-0.9
			C253.5-4.6,253.1-3,253.9-1.8z"/>
		<path class="st7" d="M215.4,25.6c0.7,1.2,2.3,1.6,3.6,0.9c1.2-0.7,1.6-2.3,0.9-3.6c-0.7-1.3-2.3-1.7-3.6-0.9
			C215,22.7,214.6,24.3,215.4,25.6z"/>
		<path class="st7" d="M276.3,15.6c0.7,1.2,2.3,1.6,3.6,0.9c1.2-0.7,1.6-2.3,0.9-3.5c-0.7-1.2-2.3-1.6-3.5-0.9
			C275.9,12.8,275.6,14.4,276.3,15.6z"/>
		<path class="st7" d="M276.4-9.1c0.7,1.2,2.3,1.6,3.5,0.9c1.3-0.7,1.6-2.3,0.9-3.6c-0.7-1.3-2.3-1.7-3.6-0.9
			C276-11.9,275.6-10.3,276.4-9.1z"/>
		<path class="st7" d="M233.6,87.7c0.7,1.2,2.3,1.6,3.6,0.9c1.2-0.7,1.6-2.3,0.9-3.5c-0.7-1.2-2.3-1.7-3.6-0.9
			C233.2,84.8,232.8,86.4,233.6,87.7z"/>
		<path class="st7" d="M109.2,50.2c0.7,1.2,2.3,1.6,3.6,0.9c1.2-0.7,1.6-2.3,0.9-3.6c-0.7-1.2-2.3-1.6-3.6-0.9
			C108.8,47.4,108.4,49,109.2,50.2z"/>
		<path class="st7" d="M138.7,68.8c0.8,1.3,2.3,1.7,3.6,0.9c1.3-0.8,1.6-2.3,0.9-3.6c-0.7-1.2-2.3-1.6-3.6-0.9
			C138.4,66,138,67.5,138.7,68.8z"/>
		<path class="st7" d="M94.2,143.1c0.7,1.2,2.3,1.6,3.6,0.9c1.3-0.7,1.6-2.3,0.9-3.6c-0.7-1.2-2.3-1.7-3.6-0.9
			C93.9,140.2,93.5,141.8,94.2,143.1z"/>
		<path class="st7" d="M116.1,157.9c0.7,1.2,2.3,1.6,3.6,0.9c1.3-0.8,1.7-2.3,0.9-3.6c-0.7-1.2-2.3-1.6-3.6-0.9
			C115.8,155.1,115.4,156.7,116.1,157.9z"/>
		<path class="st7" d="M37.4,131.5c0.7,1.2,2.3,1.6,3.6,0.9c1.2-0.8,1.6-2.3,0.9-3.6c-0.7-1.2-2.3-1.6-3.6-0.9
			C37,128.7,36.6,130.3,37.4,131.5z"/>
		<path class="st7" d="M30.1,174.4c0.7,1.2,2.3,1.6,3.6,0.9c1.2-0.8,1.6-2.3,0.9-3.6c-0.7-1.2-2.3-1.6-3.6-0.9
			C29.7,171.6,29.4,173.1,30.1,174.4z"/>
		<path class="st7" d="M-37.7,138.7c0.7,1.3,2.3,1.7,3.6,0.9c1.3-0.7,1.7-2.3,0.9-3.6c-0.7-1.2-2.3-1.6-3.6-0.9
			C-38,135.9-38.4,137.5-37.7,138.7z"/>
		<path class="st7" d="M-112.8,246.8c0.7,1.3,2.3,1.7,3.6,0.9c1.3-0.7,1.6-2.3,0.9-3.6c-0.7-1.2-2.3-1.7-3.6-0.9
			C-113.1,244-113.5,245.6-112.8,246.8z"/>
		<path class="st7" d="M-43,233.8c0.8,1.3,2.3,1.7,3.6,0.9c1.2-0.7,1.6-2.3,0.9-3.6c-0.7-1.2-2.3-1.6-3.6-0.9
			C-43.4,231-43.8,232.6-43,233.8z"/>
		<path class="st7" d="M34.7,3.1c0.7,1.3,2.3,1.7,3.6,0.9c1.2-0.7,1.6-2.3,0.9-3.6c-0.7-1.2-2.3-1.6-3.6-0.9
			C34.3,0.3,33.9,1.9,34.7,3.1z"/>
		<path class="st7" d="M1.6,8.3C2.4,9.6,3.9,10,5.2,9.2c1.2-0.8,1.6-2.3,0.9-3.6C5.3,4.4,3.8,4,2.5,4.7C1.3,5.5,0.9,7.1,1.6,8.3z"/>
		<path class="st7" d="M-23.5,76.9c0.7,1.2,2.3,1.6,3.6,0.9c1.2-0.8,1.6-2.3,0.9-3.6c-0.8-1.3-2.3-1.7-3.6-0.9
			C-23.9,74.1-24.3,75.6-23.5,76.9z"/>
		<path class="st7" d="M-106.1,101.8c0.7,1.2,2.3,1.7,3.6,0.9c1.2-0.7,1.6-2.3,0.9-3.6c-0.7-1.3-2.3-1.7-3.6-0.9
			C-106.5,99-106.9,100.5-106.1,101.8z"/>
		<path class="st7" d="M-171.9,148c0.7,1.2,2.3,1.7,3.6,0.9c1.2-0.8,1.6-2.3,0.9-3.6c-0.7-1.3-2.3-1.7-3.6-0.9
			C-172.3,145.2-172.6,146.7-171.9,148z"/>
		<path class="st7" d="M-183,128.9c0.5,0.9,1.8,1.3,2.7,0.7c0.9-0.5,1.2-1.8,0.7-2.7c-0.5-0.9-1.7-1.2-2.7-0.7
			C-183.3,126.8-183.5,128-183,128.9z"/>
		<path class="st7" d="M-172.8,125.4c0.7,1.2,2.3,1.6,3.6,0.9c1.2-0.7,1.6-2.3,0.9-3.5c-0.7-1.2-2.3-1.6-3.5-0.9
			C-173.1,122.6-173.5,124.2-172.8,125.4z"/>
		<path class="st7" d="M50.2,55c0.7,1.2,2.3,1.6,3.6,0.9c1.3-0.7,1.6-2.3,0.9-3.6c-0.7-1.3-2.3-1.7-3.6-0.9
			C49.9,52.2,49.5,53.7,50.2,55z"/>
		<polygon class="st7" points="256.5,-3.4 278.4,14.1 278.3,-9.7 278.8,-9.9 278.8,14.5 278.7,14.6 278.5,14.7 256,-3.2 		"/>
		<polygon class="st7" points="255.4,-3.9 278.6,-10.2 278.5,-9.7 255.6,-3.6 		"/>
	</g>
	
		<rect x="-69.5" y="-78.2" transform="matrix(0.2449 -0.9695 0.9695 0.2449 -8.2276 127.3209)" class="st8" width="294.2" height="294.2"/>
</g>
<g>
	<g>
		<g>
			<text transform="matrix(1 0 0 1 649.4473 102.1094)" class="st9 st10 st11 st12">enabling solutions</text>
		</g>
	</g>
	<g>
		<g>
			<g>
				<g>
					<g>
						<g>
							<g>
								<g>
									<path class="st13" d="M729.5,78.5l0.1,0.9c0.6-0.7,1.3-1,2.2-1c1,0,1.7,0.4,2.1,1.2c0.5-0.8,1.3-1.2,2.3-1.2
										c0.8,0,1.5,0.2,1.9,0.7c0.4,0.5,0.6,1.2,0.6,2.2v5h-2.1v-5c0-0.4-0.1-0.8-0.3-1c-0.2-0.2-0.5-0.3-0.9-0.3
										c-0.6,0-1.1,0.3-1.3,0.9l0,5.4h-2.1v-5c0-0.5-0.1-0.8-0.3-1c-0.2-0.2-0.5-0.3-0.9-0.3c-0.6,0-1,0.2-1.3,0.7v5.5h-2.1v-7.8
										H729.5z"/>
								</g>
							</g>
							<g>
								<g>
									<path class="st13" d="M751.3,86.4c-1.1,0-2.1-0.4-2.8-1.1c-0.7-0.7-1.1-1.6-1.1-2.8v-0.2c0-0.8,0.2-1.5,0.5-2.1
										c0.3-0.6,0.7-1.1,1.3-1.4c0.6-0.3,1.2-0.5,1.9-0.5c1.1,0,1.9,0.3,2.5,1c0.6,0.7,0.9,1.6,0.9,2.9V83h-5
										c0.1,0.5,0.3,0.9,0.6,1.2s0.8,0.5,1.3,0.5c0.8,0,1.4-0.3,1.9-0.9l1,1.1c-0.3,0.4-0.7,0.8-1.3,1S752,86.4,751.3,86.4z
										 M751.1,80c-0.4,0-0.7,0.1-1,0.4c-0.3,0.3-0.4,0.7-0.5,1.2h2.9v-0.2c0-0.5-0.1-0.8-0.4-1.1C751.8,80.1,751.5,80,751.1,80z"
										/>
								</g>
							</g>
							<g>
								<g>
									<path class="st13" d="M762.7,82.3c0-1.2,0.3-2.2,0.8-2.9c0.5-0.7,1.3-1.1,2.2-1.1c0.8,0,1.4,0.3,1.9,0.9v-4h2.1v11.1h-1.9
										l-0.1-0.8c-0.5,0.6-1.2,1-2,1c-0.9,0-1.7-0.4-2.2-1.1C763,84.6,762.7,83.6,762.7,82.3z M764.8,82.5c0,0.7,0.1,1.3,0.4,1.7
										c0.3,0.4,0.6,0.6,1.1,0.6c0.6,0,1.1-0.3,1.4-0.8v-3.1c-0.3-0.5-0.7-0.8-1.3-0.8C765.3,80,764.8,80.8,764.8,82.5z"/>
								</g>
							</g>
							<g>
								<g>
									<path class="st13" d="M778.7,76.5c0-0.3,0.1-0.6,0.3-0.8c0.2-0.2,0.5-0.3,0.9-0.3c0.4,0,0.6,0.1,0.8,0.3
										c0.2,0.2,0.3,0.5,0.3,0.8c0,0.3-0.1,0.6-0.3,0.8c-0.2,0.2-0.5,0.3-0.8,0.3c-0.4,0-0.6-0.1-0.8-0.3
										C778.8,77,778.7,76.8,778.7,76.5z M780.9,86.3h-2.1v-7.8h2.1V86.3z"/>
								</g>
							</g>
							<g>
								<g>
									<path class="st13" d="M794.6,86.3c-0.1-0.2-0.2-0.4-0.2-0.7c-0.5,0.6-1.2,0.8-2,0.8c-0.8,0-1.4-0.2-1.9-0.7
										c-0.5-0.4-0.8-1-0.8-1.7c0-0.8,0.3-1.5,0.9-1.9c0.6-0.4,1.5-0.7,2.7-0.7h1v-0.4c0-0.4-0.1-0.6-0.3-0.9
										c-0.2-0.2-0.5-0.3-0.9-0.3c-0.4,0-0.6,0.1-0.8,0.3c-0.2,0.2-0.3,0.4-0.3,0.7h-2.1c0-0.5,0.1-0.9,0.4-1.3
										c0.3-0.4,0.7-0.7,1.2-0.9c0.5-0.2,1.1-0.3,1.7-0.3c1,0,1.7,0.2,2.3,0.7c0.6,0.5,0.8,1.2,0.8,2v3.4c0,0.7,0.1,1.3,0.3,1.7
										v0.1H794.6z M792.8,84.8c0.3,0,0.6-0.1,0.8-0.2c0.3-0.1,0.5-0.3,0.6-0.6v-1.3h-0.8c-1,0-1.6,0.4-1.7,1.1l0,0.1
										c0,0.3,0.1,0.5,0.3,0.6C792.3,84.7,792.5,84.8,792.8,84.8z"/>
								</g>
							</g>
						</g>
					</g>
					<path class="st14" d="M709.5,32.5c10.5,0,11.8,3.6,11.8,3.6s-7.1-0.2-11.8,7.8c-4.7-8.1-11.8-7.8-11.8-7.8S699,32.5,709.5,32.5
						z"/>
					<g>
						<g>
							<path class="st13" d="M802.4,70.6l-7.6-7.6v1.6c-0.7,0.6-1.3,1.1-1.9,1.4c-0.8,0.4-1.8,0.6-2.9,0.6c-2,0-3.7-0.8-4.9-2.3
								c-1.3-1.6-1.9-4.2-1.9-7.7c0-3.5,0.6-6.1,1.9-7.7c1.2-1.5,2.9-2.3,4.9-2.3c1.1,0,2.1,0.2,2.9,0.6c0.5,0.3,1.1,0.7,1.7,1.2
								v1.9l1-1c0,0,0,0,0,0l5.9-5.9c0,0,0,0,0,0l0.8-0.8l-1.6,0c-1.3-1.2-2.7-2.1-4.2-2.7c-1.9-0.8-4-1.1-6.4-1.1
								c-1.9,0-3.8,0.3-5.6,0.9c-1.8,0.6-3.5,1.5-5,2.9c-1.5,1.3-2.7,3.2-3.6,5.5c-0.9,2.3-1.4,5.2-1.4,8.5c0,3.3,0.5,6.2,1.4,8.5
								c0.9,2.3,2.1,4.2,3.6,5.5c1.5,1.4,3.2,2.3,5,2.9c1.8,0.6,3.7,0.9,5.6,0.9c4.1,0,7.6-1.3,10.5-3.8L802.4,70.6z"/>
						</g>
						<g>
							<path class="st13" d="M694.2,51.7c-1.5,0-2.7,1.2-2.7,2.7c0,1.5,1.2,2.7,2.7,2.7c1.5,0,2.7-1.2,2.7-2.7
								C696.9,52.9,695.7,51.7,694.2,51.7z"/>
						</g>
						<g>
							<path class="st13" d="M724.7,51.7c-1.5,0-2.7,1.2-2.7,2.7c0,1.5,1.2,2.7,2.7,2.7c1.5,0,2.7-1.2,2.7-2.7
								C727.3,52.9,726.1,51.7,724.7,51.7z"/>
						</g>
						<g>
							<g>
								<path class="st13" d="M738.6,43.6l4.7-4.7h-4.7h0h-13.8l0,0c-8.1,0-12.6,4-13.6,11.7h-3.4C707,42.9,702.4,39,694.2,39
									c0,0,0,0,0,0v0h-13.8h0h-4.7l4.7,4.7v9.8c0,0.1,0,0.2,0,0.3v32.3h7.3V68.5h6.6c7.7,0,12.3-3.5,13.5-10.5h3.4v28h7.3V68.5
									h6.6c9.2,0,13.9-5,13.9-14.7c0-1-0.1-1.9-0.1-2.7V43.6z M699.6,59.3c-1,1.3-2.8,2-5.4,2h-6.6v-7.5c0-2.6,0.4-4.5,1.2-5.6
									c1-1.3,2.8-2,5.3-2c2.6,0,4.4,0.7,5.4,2c0.8,1.1,1.2,3,1.2,5.6C700.8,56.3,700.4,58.2,699.6,59.3z M730.3,59.3
									c-1,1.3-2.8,2-5.4,2h-6.6v-7.5c0-2.6,0.4-4.5,1.2-5.6c1-1.3,2.8-2,5.3-2c2.6,0,4.4,0.7,5.4,2c0.8,1.1,1.2,3,1.2,5.6
									C731.5,56.3,731.1,58.2,730.3,59.3z"/>
							</g>
						</g>
						<g>
							<path class="st13" d="M675.9,53.4v-2c0-8.2-4.9-12.3-14.8-12.3c-3,0-5.4,0.3-7.3,1c-1.5,0.6-3,1.5-4.3,2.8l-1.9,0l7.3,7.3
								v-1.8c0.7-0.6,1.3-1.1,2-1.4c1-0.4,2.2-0.6,3.8-0.6c2.3,0,4,0.4,5,1.3c1,0.9,1.5,2.3,1.5,4.2v1.7h-8.2
								c-3.9,0-6.8,0.9-8.8,2.8c-2,1.9-3,4.3-3,7.2c0,3.2,1,5.8,2.9,7.8c1.3,1.3,3,2.2,5.1,2.7c0.2,0,1.1,0.2,1.6,0.2
								c2,0,6.2-0.7,6.2-7c-0.7,0.1-1.5,0.2-2.4,0.2c-1.6,0-2.9-0.4-3.7-1.1c-0.8-0.7-1.3-1.7-1.3-2.9c0-2.6,1.6-3.9,4.9-3.9h2.5
								h4.3h0v1.9c0,0.1,0,0.3,0,0.4v4.8h0v7.6h3.1c0.1,0,0.1,0,0.1,0c0,0,0,0,0,0h5.4V60l3.3-3.3L675.9,53.4z"/>
						</g>
						<g>
							<path class="st13" d="M769.7,53.4v-2c0-8.2-4.9-12.3-14.8-12.3c-3,0-5.4,0.3-7.3,1c-1.5,0.6-3,1.5-4.3,2.8l-1.9,0l7.3,7.3
								v-1.8c0.7-0.6,1.3-1.1,2-1.4c1-0.4,2.2-0.6,3.8-0.6c2.3,0,4,0.4,5,1.3c1,0.9,1.5,2.3,1.5,4.2v1.7h-8.2
								c-3.9,0-6.8,0.9-8.8,2.8c-2,1.9-3,4.3-3,7.2c0,3.2,1,5.8,2.9,7.8c1.3,1.3,3,2.2,5.1,2.7c0.2,0,1.1,0.2,1.6,0.2
								c2,0,6.2-0.7,6.2-7c-0.7,0.1-1.5,0.2-2.4,0.2c-1.6,0-2.9-0.4-3.7-1.1c-0.8-0.7-1.3-1.7-1.3-2.9c0-2.6,1.6-3.9,4.9-3.9h2.5
								h4.3h0v1.9c0,0.1,0,0.3,0,0.4v4.8h0v7.6h3.1c0.1,0,0.1,0,0.1,0c0,0,0,0,0,0h5.4V60l3.3-3.3L769.7,53.4z"/>
						</g>
					</g>
				</g>
				<g>
					<g>
						<g>
							<path class="st13" d="M801.1,32.9c0.4,0.2,0.7,0.6,1,1c0.2,0.4,0.4,0.8,0.4,1.3c0,0.5-0.1,0.9-0.4,1.3c-0.2,0.4-0.6,0.7-1,1
								c-0.4,0.2-0.9,0.4-1.3,0.4c-0.5,0-0.9-0.1-1.3-0.4c-0.4-0.2-0.7-0.6-1-1c-0.2-0.4-0.3-0.8-0.3-1.3c0-0.5,0.1-0.9,0.4-1.3
								s0.6-0.7,1-1c0.4-0.2,0.9-0.4,1.3-0.4C800.2,32.5,800.6,32.7,801.1,32.9z M800.7,36.9c0.3-0.2,0.6-0.4,0.7-0.7
								c0.2-0.3,0.3-0.6,0.3-1c0-0.4-0.1-0.7-0.3-1c-0.2-0.3-0.4-0.5-0.7-0.7c-0.3-0.2-0.6-0.3-1-0.3c-0.4,0-0.7,0.1-1,0.3
								c-0.3,0.2-0.5,0.4-0.7,0.7c-0.2,0.3-0.3,0.6-0.3,1c0,0.4,0.1,0.7,0.3,1s0.4,0.5,0.7,0.7c0.3,0.2,0.6,0.3,1,0.3
								C800.1,37.2,800.4,37.1,800.7,36.9z M800.7,35.2c-0.1,0.1-0.2,0.2-0.3,0.3l0.5,0.8h-0.7l-0.4-0.7h0h-0.4v0.7h-0.6v-2.5h1.1
								c0.3,0,0.6,0.1,0.8,0.2c0.2,0.2,0.3,0.4,0.3,0.6C800.8,34.9,800.8,35.1,800.7,35.2z M799.3,35.2h0.4c0.1,0,0.2,0,0.3-0.1
								c0.1-0.1,0.1-0.2,0.1-0.3c0-0.1,0-0.2-0.1-0.3c-0.1-0.1-0.2-0.1-0.3-0.1h-0.4V35.2z"/>
						</g>
					</g>
				</g>
			</g>
		</g>
	</g>
</g>
</svg>
