<?xml version="1.0" encoding="utf-8"?>
<!-- Generator: Adobe Illustrator 25.4.1, SVG Export Plug-In . SVG Version: 6.00 Build 0)  -->
<svg version="1.1" id="Layer_1" xmlns="http://www.w3.org/2000/svg" xmlns:xlink="http://www.w3.org/1999/xlink" x="0px" y="0px"
	 viewBox="0 0 250 172" style="enable-background:new 0 0 250 172;" xml:space="preserve">
<style type="text/css">
	.st0{fill:#40B7DB;}
	.st1{opacity:0.9;}
	.st2{filter:url(#Adobe_OpacityMaskFilter);}
	.st3{fill:url(#SVGID_00000005265382620582115020000012798468653696287884_);}
	.st4{mask:url(#SVGID_00000107578792881131080540000004959870543247334319_);}
	.st5{opacity:0.3;}
	.st6{fill:#9CD9DE;}
	.st7{fill:#22A3D8;}
	.st8{fill:none;}
	.st9{fill:#278ACB;}
	.st10{fill:#F0A51F;}
	.st11{opacity:0.1;}
	.st12{fill:#616262;}
</style>
<g>
	<rect x="-880.3" y="528.2" class="st0" width="841.9" height="81"/>
	<g class="st1">
		<defs>
			<rect id="SVGID_1_" x="-880.3" y="528.2" class="st1" width="841.9" height="81"/>
		</defs>
		<clipPath id="SVGID_00000087409552183369010330000016162240556896406147_">
			<use xlink:href="#SVGID_1_"  style="overflow:visible;"/>
		</clipPath>
		<g style="clip-path:url(#SVGID_00000087409552183369010330000016162240556896406147_);">
			
				<image style="overflow:visible;" width="1600" height="800" xlink:href="15A01FE9.jpg"  transform="matrix(0.5327 0 0 0.4754 -881.6218 402.791)">
			</image>
		</g>
	</g>
</g>
<defs>
	<filter id="Adobe_OpacityMaskFilter" filterUnits="userSpaceOnUse" x="-1063.6" y="-691.1" width="464.5" height="386.9">
		<feColorMatrix  type="matrix" values="1 0 0 0 0  0 1 0 0 0  0 0 1 0 0  0 0 0 1 0"/>
	</filter>
</defs>
<mask maskUnits="userSpaceOnUse" x="-1063.6" y="-691.1" width="464.5" height="386.9" id="SVGID_00000136392903554697313030000009303959079731877518_">
	<g class="st2">
		
			<radialGradient id="SVGID_00000168813199218871290830000000850410449842475667_" cx="-1505.2191" cy="-1071.1226" r="154.7027" gradientTransform="matrix(-0.9695 -0.2449 0.2449 -0.9695 -1999.7078 -1919.4751)" gradientUnits="userSpaceOnUse">
			<stop  offset="0" style="stop-color:#FFFFFF"/>
			<stop  offset="0.2878" style="stop-color:#939090"/>
			<stop  offset="0.6344" style="stop-color:#434140"/>
			<stop  offset="0.8802" style="stop-color:#181818"/>
			<stop  offset="1" style="stop-color:#010101"/>
		</radialGradient>
		<polygon style="fill:url(#SVGID_00000168813199218871290830000000850410449842475667_);" points="-914.5,-700.3 -615,-624.7 
			-690.9,-324.2 -990.4,-399.9 		"/>
	</g>
</mask>
<g style="mask:url(#SVGID_00000136392903554697313030000009303959079731877518_);">
	<g>
		<g class="st5">
			<path class="st6" d="M-826.1-533.9l-0.1,0l-0.3-0.2l22.4-90.7l0.3-0.6l50.9,66.7l0.2,0.2L-826.1-533.9z M-826.1-534.4l72.6-24.3
				l-50.3-66L-826.1-534.4z"/>
			<path class="st6" d="M-753-558.4l-0.2,0.1l-50.8-66.7l-0.1-0.1l0.2-0.3l96.6,19.8l0.4,0.1L-753-558.4z M-753.1-558.9l21.9-22.3
				l0,0l0.2-0.1l23.4-23.9l-95.7-19.6L-753.1-558.9z"/>
			<path class="st6" d="M-654.1-622.1L-654.1-622.1l-53.1,17l-0.5,0.2l43.8-74l0.1-0.2l29.9,23.9l13.5,22.5L-654.1-622.1z
				 M-663.6-678.6l-43.1,72.9l52.1-16.6l-0.1-0.2l0.4,0.1l33.3-10.6l-13.1-22L-663.6-678.6z"/>
			<path class="st6" d="M-681.9-519.9l-5.4-52l0-0.3l42.2,15l0.3,0.1L-681.9-519.9z M-681.5-520.8l36-36.1l-41.3-14.7L-681.5-520.8z
				"/>
			<path class="st6" d="M-640.9-506.1l0,0.3l-40.8-14.2l-0.1,0l0-0.4l36.6-36.8l0.3-0.3L-640.9-506.1z M-641.4-506.4l-3.9-50.2
				l-36.1,36.3L-641.4-506.4z"/>
			<path class="st6" d="M-882.2-385.4l0,0.2l-80,10.3l-0.6,0.1l73.2-73.4l0.3-0.3L-882.2-385.4z M-882.7-385.6l-6.9-62l-72.1,72.2
				L-882.7-385.6z"/>
			<path class="st6" d="M-715.4-461.7l0.2,0.5l-110.9-72.7l-0.7-0.4l93.7,7l0.2,0L-715.4-461.7z M-716-462.1l-17.4-64.8l-92-6.9
				L-716-462.1z"/>
			<path class="st6" d="M-962-375.1l0.1,0.3l-54.8,2.7l-0.3,0l28.8-85.7l0.2-0.6L-962-375.1z M-962.5-375.3l-25.6-81.8l-28.4,84.5
				L-962.5-375.3z"/>
			<path class="st6" d="M-962.1-375l-0.2,0.3l-26-83l-0.1-0.3l99,9.8l0.4,0.1L-962.1-375z M-962.1-375.5l72.3-72.4l-97.9-9.7
				L-962.1-375.5z"/>
			<path class="st6" d="M-601.5-529.8l0.5,0.8l-44.3-27.8l-0.2-0.1l37.3-35l0.3-0.3L-601.5-529.8z M-601.9-530.1l-6.3-61.3
				l-36.6,34.4L-601.9-530.1z"/>
			<path class="st6" d="M-852.3-380.1l0,0.1l-0.1,0.2l-0.3,0.2l-29.9-5.6l-7.2-63.9L-852.3-380.1z M-852.8-380l-36.3-67l6.9,61.5
				L-852.8-380z"/>
			<path class="st6" d="M-782.6-421.7l0.1,0.2l-0.3,0.2l-106.7-26.5l-0.3-0.1l63.5-86.6L-782.6-421.7z M-783.2-421.8l-43.3-111.8
				l-62.6,85.4L-783.2-421.8z"/>
			<path class="st6" d="M-677.8-484.1l-0.1,0.4l-55.4-43.2l-0.2-0.2l46.3-45l0.3-0.3L-677.8-484.1z M-678.2-484.5l-3.6-35.5
				l-0.4-0.1l0.3-0.3l-5.3-51.1l-45.6,44.4L-678.2-484.5z"/>
			<path class="st6" d="M-852.4-379.7l-0.4,0.2l0.1-0.4l-37.3-68.7l58,36.2l0.3,0.2L-852.4-379.7z M-852.4-380.3l19.9-32l-56.3-35.1
				L-852.4-380.3z"/>
			<path class="st6" d="M-973.5-307.6l0,0.1l-3.6,2.1l-39.9-66.9l-0.1-0.2l0.2-0.1l54.9-2.8L-973.5-307.6z M-977-305.9l3.1-1.8
				l11.5-67.1l-54,2.7L-977-305.9z"/>
			<path class="st6" d="M-1016.6-372.3l-0.2,0.4l-43.1-72.1l0-0.3l71.6-13.7l0.4-0.1L-1016.6-372.3z M-1016.9-372.8l28.5-84.7
				l-70.9,13.5L-1016.9-372.8z"/>
			<path class="st6" d="M-889.3-447.9l-0.2,0.3l-25-69.7l-0.1-0.2l88.2-16.7l0.5-0.1L-889.3-447.9z M-889.4-448.5l62.5-85.3
				l-87.2,16.5L-889.4-448.5z"/>
			<path class="st6" d="M-645.2-556.7l-22.5-45.2l-0.2-0.4l59.9,10.2l0.4,0.1L-645.2-556.7z M-645.1-557.4l36.6-34.3l-58.6-10
				L-645.1-557.4z"/>
			<path class="st6" d="M-732.9-527.1l0,0.7l-20.3-32l-0.1-0.2l22.3-22.8l0.4-0.4L-732.9-527.1z M-733.4-527.8l2.2-52.9l-21.7,22.1
				L-733.4-527.8z"/>
			<path class="st6" d="M-826.1-533.8l-0.7-0.3l73.6-24.6l0.2,0l20,31.6l0.2,0.3L-826.1-533.8z M-825.3-534.2l91.7,6.8l-19.6-31
				L-825.3-534.2z"/>
			<path class="st6" d="M-645-557.1l0.2,0.5l-42.4-15.1l-0.2-0.1l19.6-30.3l0.2-0.3L-645-557.1z M-645.6-557.4l-22-44.2l-19.2,29.5
				L-645.6-557.4z"/>
			<path class="st6" d="M-686.9-571.9l-0.2,0.3l-20.4-33.7l-0.1-0.2l53.1-16.9l0.6-0.2L-686.9-571.9z M-687-572.4l32.1-49.5
				l-52,16.6L-687-572.4z"/>
			<path class="st6" d="M-730.9-581.1l-0.4-0.1l24.1-24.5l20.4,33.6l0.2,0.4L-730.9-581.1z M-730.5-581.4l43,9.1l-19.8-32.7
				L-730.5-581.4z"/>
			<path class="st6" d="M-733-526.9l-0.4,0.4l2.3-54.7l0.1-0.3l44,9.3l0.4,0.1L-733-526.9z M-732.9-527.6l45.5-44.2l-43.2-9.2
				L-732.9-527.6z"/>
			<path class="st6" d="M-889.2-448.1l0.1,0.3l-99-9.8l-0.5,0l74.2-59.9l0.2-0.2L-889.2-448.1z M-889.7-448.3l-24.7-68.8l-73.1,59.1
				L-889.7-448.3z"/>
			<path class="st6" d="M-607.8-591.9l0,0.4l-46.6-30.5l-0.4-0.2l34.1-10.9l0.2-0.1l11.7,19.6L-607.8-591.9z M-653.9-622.2
				l45.5,29.8l-1-21.2l-11.4-19.2L-653.9-622.2z"/>
			<path class="st6" d="M-667.5-601.8l-0.3-0.1l13.3-20.5l0.2-0.2l46.4,30.4l0.8,0.6L-667.5-601.8z M-667.2-602.2l58.1,9.9
				l-45.3-29.7L-667.2-602.2z"/>
			<path class="st6" d="M-665.8-677.7c0.8,1.3,2.4,1.7,3.6,0.9c1.3-0.8,1.7-2.4,0.9-3.6c-0.8-1.3-2.4-1.7-3.6-0.9
				C-666.1-680.5-666.5-678.9-665.8-677.7z"/>
			<path class="st6" d="M-709.9-604c0.7,1.2,2.3,1.7,3.6,0.9c1.3-0.8,1.7-2.4,0.9-3.6c-0.8-1.3-2.4-1.7-3.6-0.9
				C-710.3-606.8-710.7-605.3-709.9-604z"/>
			<path class="st6" d="M-689-570.6c0.8,1.3,2.3,1.7,3.6,0.9c1.3-0.7,1.7-2.3,0.9-3.6c-0.7-1.2-2.4-1.6-3.6-0.9
				C-689.4-573.4-689.7-571.8-689-570.6z"/>
			<path class="st6" d="M-648-555.7c0.8,1.3,2.4,1.7,3.6,0.9c1.3-0.8,1.7-2.4,0.9-3.6c-0.8-1.3-2.3-1.7-3.6-0.9
				C-648.3-558.6-648.7-557-648-555.7z"/>
			<path class="st6" d="M-610.7-591.1c0.8,1.3,2.4,1.7,3.6,0.9c1.3-0.8,1.7-2.4,0.9-3.6c-0.7-1.2-2.4-1.7-3.6-0.9
				C-611-594-611.4-592.3-610.7-591.1z"/>
			<path class="st6" d="M-683.5-519.4c0.8,1.3,2.4,1.7,3.6,0.9c1.3-0.8,1.7-2.3,0.9-3.6c-0.8-1.3-2.4-1.7-3.6-0.9
				C-683.9-522.2-684.3-520.6-683.5-519.4z"/>
			<path class="st6" d="M-733.4-580.2c0.7,1.3,2.4,1.7,3.6,0.9c1.3-0.8,1.7-2.4,0.9-3.6c-0.8-1.3-2.4-1.7-3.6-0.9
				C-733.8-583-734.2-581.4-733.4-580.2z"/>
			<path class="st6" d="M-755.4-556.9c0.7,1.3,2.4,1.7,3.6,0.9c1.3-0.8,1.7-2.4,0.9-3.6c-0.7-1.2-2.4-1.6-3.6-0.9
				C-755.8-559.8-756.2-558.1-755.4-556.9z"/>
			<path class="st6" d="M-735.4-526c0.8,1.3,2.4,1.7,3.6,0.9c1.3-0.8,1.7-2.4,0.9-3.6c-0.8-1.3-2.3-1.7-3.6-0.9
				C-735.8-528.8-736.2-527.2-735.4-526z"/>
			<path class="st6" d="M-717.9-460.6c0.8,1.3,2.4,1.7,3.6,0.9c1.3-0.8,1.7-2.4,0.9-3.7c-0.7-1.3-2.4-1.6-3.6-0.9
				C-718.2-463.4-718.6-461.8-717.9-460.6z"/>
			<path class="st6" d="M-680.1-482.7c0.7,1.3,2.4,1.7,3.6,0.9c1.3-0.8,1.7-2.3,0.9-3.6c-0.8-1.3-2.4-1.7-3.6-0.9
				C-680.4-485.6-680.8-484-680.1-482.7z"/>
			<path class="st6" d="M-643.3-505c0.6,1.1,1.9,1.4,3,0.8c1.1-0.6,1.4-1.9,0.8-3c-0.6-1-2-1.4-3-0.8
				C-643.6-507.4-643.9-506-643.3-505z"/>
			<path class="st6" d="M-603.8-529c0.6,1.1,2,1.4,3,0.8c1.1-0.6,1.4-2,0.8-3c-0.6-1.1-2-1.4-3-0.7
				C-604.1-531.4-604.4-530-603.8-529z"/>
			<path class="st6" d="M-784.7-420.2c0.6,1.1,2,1.4,3,0.8c1.1-0.6,1.4-2,0.7-3c-0.6-1-2-1.4-3-0.8
				C-785-422.6-785.3-421.2-784.7-420.2z"/>
			<path class="st6" d="M-833.9-411c0.6,1.1,2,1.4,3,0.8c1-0.6,1.4-2,0.7-3c-0.6-1-2-1.4-3-0.8C-834.2-413.4-834.5-412.1-833.9-411z
				"/>
			<path class="st6" d="M-854.6-378.4c0.6,1.1,2,1.4,3,0.8c1.1-0.6,1.4-2,0.8-3c-0.6-1-2-1.4-3-0.8
				C-854.9-380.8-855.2-379.5-854.6-378.4z"/>
			<path class="st6" d="M-911.2-345c0.6,1.1,2,1.4,3,0.8c1.1-0.6,1.4-2,0.7-3c-0.6-1-1.9-1.4-3-0.8
				C-911.5-347.4-911.8-346.1-911.2-345z"/>
			<path class="st6" d="M-884.6-384.4c0.6,1.1,2,1.4,3,0.8c1.1-0.6,1.4-2,0.8-3c-0.6-1.1-2-1.4-3-0.8
				C-884.8-386.8-885.2-385.5-884.6-384.4z"/>
			<path class="st6" d="M-828.7-532.6c0.8,1.3,2.4,1.7,3.6,0.9c1.3-0.8,1.7-2.4,0.9-3.6c-0.8-1.3-2.4-1.7-3.6-0.9
				C-829.1-535.4-829.5-533.8-828.7-532.6z"/>
			<path class="st6" d="M-891.9-446.2c0.8,1.3,2.4,1.7,3.6,0.9c1.3-0.7,1.7-2.4,0.9-3.6c-0.7-1.3-2.4-1.7-3.6-0.9
				C-892.2-449.1-892.6-447.5-891.9-446.2z"/>
			<path class="st6" d="M-964.8-373.4c0.8,1.3,2.4,1.7,3.6,0.9c1.3-0.8,1.7-2.3,0.9-3.6c-0.7-1.2-2.3-1.7-3.6-0.9
				C-965.2-376.3-965.6-374.7-964.8-373.4z"/>
			<path class="st6" d="M-1018.3-370.6c0.8,1.3,2.3,1.7,3.6,0.9c1.3-0.8,1.6-2.4,0.9-3.6c-0.7-1.3-2.3-1.7-3.6-0.9
				C-1018.6-373.5-1019-371.9-1018.3-370.6z"/>
			<path class="st6" d="M-978.1-305.5c0.7,1.3,2.3,1.7,3.6,0.9c1.3-0.7,1.7-2.3,0.9-3.6c-0.8-1.2-2.4-1.7-3.6-0.9
				C-978.4-308.3-978.8-306.7-978.1-305.5z"/>
			<path class="st6" d="M-670.2-601c0.8,1.3,2.4,1.7,3.6,0.9c1.3-0.8,1.7-2.4,0.9-3.6c-0.8-1.3-2.4-1.7-3.6-0.9
				C-670.5-603.8-670.9-602.2-670.2-601z"/>
			<path class="st6" d="M-656.6-621c0.8,1.3,2.4,1.7,3.6,0.9c1.3-0.8,1.6-2.4,0.9-3.6c-0.8-1.3-2.3-1.7-3.6-0.9
				C-656.9-623.8-657.3-622.2-656.6-621z"/>
			<path class="st6" d="M-622.8-631.9c0.5,0.9,1.6,1.1,2.4,0.6c0.8-0.5,1.1-1.6,0.6-2.4c-0.5-0.8-1.6-1.1-2.4-0.6
				C-623-633.8-623.3-632.7-622.8-631.9z"/>
			<path class="st6" d="M-806.5-623.5c0.8,1.3,2.4,1.7,3.6,0.9c1.3-0.8,1.7-2.4,0.9-3.6c-0.7-1.3-2.4-1.7-3.6-0.9
				C-806.8-626.4-807.2-624.7-806.5-623.5z"/>
			<path class="st6" d="M-916.8-515.7c0.7,1.3,2.4,1.7,3.6,0.9c1.3-0.8,1.6-2.4,0.9-3.6c-0.8-1.3-2.3-1.7-3.6-0.9
				C-917.1-518.5-917.5-517-916.8-515.7z"/>
			<path class="st6" d="M-990.1-456.1c0.8,1.2,2.4,1.6,3.6,0.9c1.3-0.8,1.7-2.4,0.9-3.6c-0.7-1.3-2.3-1.7-3.6-0.9
				C-990.4-459-990.8-457.4-990.1-456.1z"/>
			<path class="st6" d="M-1062.1-443.3c0.8,1.3,2.3,1.7,3.6,0.9c1.3-0.8,1.7-2.3,0.9-3.6c-0.7-1.2-2.4-1.7-3.6-0.9
				C-1062.4-446.2-1062.8-444.5-1062.1-443.3z"/>
			<polygon class="st6" points="-882.5,-385.6 -882.3,-385.6 -882.2,-385.4 -882.4,-384.9 -882.5,-385.2 -961.5,-374.9 
				-909.2,-346.4 -909,-346.5 -909.2,-346 -962.3,-374.9 -962.9,-375.2 			"/>
			<polygon class="st6" points="-909.5,-346.4 -882.7,-385.4 -882.4,-385.2 -909.2,-346 			"/>
		</g>
		<path class="st7" d="M-739.4-513.9l-0.7,0.4l29-49.1l0.1-0.1l47.7,5.6l0.7,0.1L-739.4-513.9z M-738.9-514.7l74.9-42.2l-46.8-5.4
			L-738.9-514.7z"/>
		<path class="st7" d="M-761.5-424.4l-0.1,0.2l-22.3-14.6l-0.2-0.1l44.1-74.8l0.7-1.2L-761.5-424.4z M-761.8-424.8l21.6-87.4
			l-43.2,73.3L-761.8-424.8z"/>
		<path class="st7" d="M-644.4-494.4l-0.2,0.4l-18.9-62.9l-0.1-0.2l61.8-9.9l0.1,0l0.2,0.3L-644.4-494.4z M-644.5-495l42.4-71.6
			l-61,9.8L-644.5-495z"/>
		<path class="st7" d="M-644.4-494.6l0.1,0.4l-95.3-19.6l-0.3,0l0.2-0.5l76.1-42.9l0.2-0.1L-644.4-494.6z M-644.8-494.8l-18.6-61.9
			l-75.6,42.6L-644.8-494.8z"/>
		<path class="st7" d="M-739.3-514l-0.2,0.2l-0.1,0.3l-44,74.6l-0.5,1l15.2-94.4l0-0.1l57.8-30.3l0.1,0l0.5,0.1L-739.3-514z
			 M-783.4-440l43.4-73.6l0.1-0.5l0.2-0.1l28.2-47.9l-57.1,30L-783.4-440z"/>
		<path class="st7" d="M-663.1-557l0.1,0.3l-47.8-5.6l-0.3-0.1l0.3-0.5l40.3-32.4l0.3-0.2L-663.1-557z M-663.6-557.2l-7-37.5
			l-39.9,32L-663.6-557.2z"/>
		<path class="st7" d="M-664.2-556.7l39.9-28.3l0.1-0.1l22.6,18l0.3,0.3L-664.2-556.7z M-662.5-557.4l60.3-9.6l-22-17.5
			L-662.5-557.4z"/>
		<path class="st7" d="M-710.6-562.6l-0.4,0.3l-45.8-10l-0.5-0.1l83-52.4l0.7-0.5L-710.6-562.6z M-711.1-562.8l0.1-0.1l36-61.1
			l-81.4,51.4L-711.1-562.8z"/>
		<path class="st7" d="M-670.5-595l-1-0.2l28.1-4.8l-0.1-0.5l20.2,16.1L-670.5-595z M-669.4-595.1l44.3,10l-18-14.4L-669.4-595.1z"
			/>
		<path class="st7" d="M-663.2-556.8l-0.3,0.2l-7.2-38.5l-0.1-0.3l46.6,10.5l0.4,0.1L-663.2-556.8z M-663.2-557.3l38.5-27.3
			l-45.5-10.2L-663.2-557.3z"/>
		<path class="st7" d="M-643-600l0.1,0.5l-31.5-25.1l-0.1-0.1l12.6-64.7L-643-600z M-643.5-600.4l-18.4-86.7l-12.1,62.4
			L-643.5-600.4z"/>
		<path class="st7" d="M-674.1-624.6l0,0.2l-114.7-18.6l-0.8-0.1l127.6-45.2l0.3-0.1L-674.1-624.6z M-674.4-624.9l12.2-63
			l-125.7,44.6L-674.4-624.9z"/>
		<path class="st7" d="M-768.5-532.2l0,0.1l-59.8,4.4l71.8-45.3L-768.5-532.2z M-768.9-532.5l11.6-39.5l-69.5,43.8L-768.9-532.5z"/>
		<path class="st7" d="M-756.7-572.4L-756.7-572.4L-756.7-572.4l-70.8,44.7l-0.2,0.1l-15.7-52.3l-0.1-0.2l169.2-44.7l1.3-0.3
			L-756.7-572.4z M-827.5-528.2l70.4-44.4l0.1-0.3l0.3,0.1l81.3-51.4L-843-579.8L-827.5-528.2z"/>
		<path class="st7" d="M-783.6-438.3l-44.2-89.5l-0.1-0.3l59.2-4.4l0.3,0L-783.6-438.3z M-783.8-439.6l14.9-92.4l-58.3,4.3
			L-783.8-439.6z"/>
		<path class="st7" d="M-827.4-528l0.2,0.7l-32.9-31.3l-0.1-0.1l16.7-21.5l0.3-0.3L-827.4-528z M-828-528.6l-15.4-50.9l-16.3,20.8
			L-828-528.6z"/>
		<path class="st7" d="M-901.4-505.4l-0.6,0.2l41.9-53.6l0.1-0.2l32.5,30.9l0.2,0.3L-901.4-505.4z M-900.9-506l72.9-22l-31.9-30.4
			L-900.9-506z"/>
		<path class="st7" d="M-848.2-407.8l-0.3,0.2l7.5-43.7l0.1-0.2l57.3,12.4l0.6,0.1L-848.2-407.8z M-848-408.3l63.6-30.5l-56.2-12.1
			L-848-408.3z"/>
		<path class="st7" d="M-840.6-451.2l-0.1,0.2l-74.6,7.3l-0.1,0l-0.4-0.2l88-84.1l0.5-0.4L-840.6-451.2z M-841-451.4l13.1-75.9
			l-87,83.1L-841-451.4z"/>
		<path class="st7" d="M-848-407.9l-0.1,0.3l-67.3-36.1l-0.6-0.3l75.2-7.3l0.3,0L-848-407.9z M-848.4-408.3l7.4-42.7l-73.6,7.2
			L-848.4-408.3z"/>
		<path class="st7" d="M-783.6-439l0.2,0.4l-57.5-12.4l-0.2,0l13.2-76.9l0.1-0.6L-783.6-439z M-784.1-439.2l-43.4-88l-13,75.9
			L-784.1-439.2z"/>
		<path class="st7" d="M-768.6-532.1l-0.4,0.2l11.9-40.7l0-0.1l0.3-0.2l45.8,10l0.6,0.1L-768.6-532.1z M-756.8-572.3l-11.6,39.6
			l56.8-29.8L-756.8-572.3L-756.8-572.3z"/>
		<path class="st7" d="M-843.2-579.8l-0.6,0.2l55-63.9l114.7,18.6l1,0.2L-843.2-579.8z M-842.7-580.3l167.5-44.3L-788.7-643
			L-842.7-580.3z"/>
		<path class="st7" d="M-859.9-558.4l-16.3-15.6l-0.3-0.3l33.2-6l0.5-0.1L-859.9-558.4z M-860-559l16.2-20.7l-31.9,5.8L-860-559z"/>
		<path class="st7" d="M-1050-434.5l-0.2,0.1l-0.2-0.3l-0.4-22.5l0-0.2l66.9-23.7l1.5-0.5L-1050-434.5z M-1050-435l64.7-45
			l-65.1,23.1L-1050-435z"/>
		<path class="st7" d="M-1050-434.7l0,0.8l-11.6-19.5l10.9-3.9l0.3-0.1L-1050-434.7z M-1050.4-435.5l-0.4-21.3l-10.2,3.6
			L-1050.4-435.5z"/>
		<path class="st7" d="M-990.9-335.9l-0.1,0.8l-0.3-0.5l-0.5,0.3l0.3-0.6l-59-98.9l66.4-46.2l0.4-0.2L-990.9-335.9z M-991.3-336.4
			l7.2-143.9l-65.7,45.8L-991.3-336.4z"/>
		<path class="st7" d="M-761.6-424.2l-86.6,16.5l-1.6,0.3l65.9-31.6l0.1-0.1l22.2,14.5l0.1,0.1L-761.6-424.2z M-846.7-408.5l84.7-16
			l-21.7-14.2L-846.7-408.5z"/>
		<path class="st7" d="M-915.3-443.9l-0.1,0.1l-68.6-36.8l-0.5-0.2l82.9-24.9l0,0l73.9-22.3l0.8-0.2L-915.3-443.9z M-901.4-505.1
			l-0.2-0.3l-81.8,24.7l67.9,36.4l87.1-83.2l-72.9,22L-901.4-505.1z"/>
		<path class="st7" d="M-920.7-349.1l-0.4,0.2l5.4-95.1l0-0.2l0.4,0l67.4,36.1L-920.7-349.1z M-920.6-349.8l72-58.2l-66.7-35.8
			L-920.6-349.8z"/>
		<path class="st7" d="M-920.6-349.3l0,0.2l-70.5,13.5l-0.3,0l0.1-0.3l75.7-108.1l0.4-0.6L-920.6-349.3z M-921-349.5l5.3-93.8
			l-75,107.1L-921-349.5z"/>
		<path class="st7" d="M-915.3-443.9l-76.1,108.7l7.3-145.6l0-0.3l68.8,36.9l0.2,0.1L-915.3-443.9z M-990.9-336.6l75.2-107.3
			l-67.9-36.4L-990.9-336.6z"/>
		<path class="st7" d="M-670.3-595.2l0,0.1l-40.4,32.5l-0.9,0.7l37.1-62.9l0.3-0.5L-670.3-595.2z M-670.7-595.3l-3.7-28.8
			l-35.6,60.4L-670.7-595.3z"/>
		<path class="st7" d="M-642.9-599.6l-27.5,4.7l-0.2,0l-3.8-29.7l-0.1-0.5l31.4,25.1l0,0L-642.9-599.6z M-670.3-595.4l26.8-4.5
			l-30.5-24.2L-670.3-595.4z"/>
		<path class="st7" d="M-624-584.9l0.5,0.9l-19.8-15.8l-0.1-0.1l-8.2-38.5L-624-584.9z M-624.8-585.5l-25.7-49.9l7.5,35.4
			L-624.8-585.5z"/>
		<path class="st7" d="M-790.8-641.9c0.7,1.2,2.3,1.6,3.6,0.9c1.2-0.7,1.6-2.3,0.9-3.5c-0.7-1.3-2.3-1.7-3.6-0.9
			C-791.2-644.7-791.6-643.1-790.8-641.9z"/>
		<path class="st7" d="M-677-622.7c0.7,1.2,2.3,1.6,3.6,0.9c1.3-0.8,1.6-2.3,0.9-3.6c-0.8-1.3-2.3-1.7-3.6-0.9
			C-677.3-625.6-677.7-624-677-622.7z"/>
		<path class="st7" d="M-672.9-593.7c0.7,1.2,2.3,1.6,3.5,0.9c1.3-0.7,1.6-2.3,0.9-3.6c-0.7-1.2-2.3-1.6-3.6-0.9
			C-673.3-596.5-673.7-594.9-672.9-593.7z"/>
		<path class="st7" d="M-652.6-635c0.7,1.2,2.3,1.6,3.6,0.9c1.2-0.7,1.6-2.3,0.9-3.6c-0.8-1.3-2.3-1.7-3.6-0.9
			C-653-637.8-653.4-636.2-652.6-635z"/>
		<path class="st7" d="M-664.2-687.1c0.7,1.3,2.3,1.7,3.6,0.9c1.2-0.7,1.6-2.3,0.9-3.6c-0.7-1.2-2.3-1.6-3.5-0.9
			C-664.6-689.9-664.9-688.3-664.2-687.1z"/>
		<path class="st7" d="M-759.5-570.7c0.7,1.2,2.3,1.7,3.6,0.9c1.2-0.7,1.6-2.4,0.9-3.6c-0.7-1.2-2.3-1.6-3.6-0.9
			C-759.9-573.5-760.3-571.9-759.5-570.7z"/>
		<path class="st7" d="M-713.6-561.4c0.7,1.2,2.3,1.7,3.6,0.9c1.2-0.7,1.6-2.4,0.9-3.6c-0.7-1.2-2.3-1.6-3.6-0.9
			C-713.9-564.2-714.3-562.6-713.6-561.4z"/>
		<path class="st7" d="M-626.4-583.1c0.8,1.3,2.3,1.7,3.6,0.9c1.3-0.7,1.7-2.3,0.9-3.6c-0.7-1.2-2.3-1.6-3.6-0.9
			C-626.8-585.9-627.2-584.3-626.4-583.1z"/>
		<path class="st7" d="M-664.9-555.8c0.7,1.2,2.3,1.6,3.6,0.9c1.2-0.7,1.6-2.3,0.9-3.6c-0.7-1.3-2.3-1.7-3.6-0.9
			C-665.3-558.6-665.7-557-664.9-555.8z"/>
		<path class="st7" d="M-604-565.7c0.7,1.2,2.3,1.6,3.6,0.9c1.2-0.7,1.6-2.3,0.9-3.5c-0.7-1.2-2.3-1.6-3.5-0.9
			C-604.3-568.5-604.7-567-604-565.7z"/>
		<path class="st7" d="M-603.9-590.4c0.7,1.2,2.3,1.6,3.5,0.9c1.3-0.7,1.6-2.3,0.9-3.6c-0.7-1.3-2.3-1.7-3.6-0.9
			C-604.3-593.2-604.7-591.6-603.9-590.4z"/>
		<path class="st7" d="M-646.7-493.7c0.7,1.2,2.3,1.6,3.6,0.9c1.2-0.7,1.6-2.3,0.9-3.5c-0.7-1.2-2.3-1.7-3.6-0.9
			C-647.1-496.5-647.5-494.9-646.7-493.7z"/>
		<path class="st7" d="M-771.1-531.1c0.7,1.2,2.3,1.6,3.6,0.9c1.2-0.7,1.6-2.3,0.9-3.6c-0.7-1.2-2.3-1.6-3.6-0.9
			C-771.4-534-771.8-532.4-771.1-531.1z"/>
		<path class="st7" d="M-741.6-512.6c0.8,1.3,2.3,1.7,3.6,0.9c1.3-0.8,1.6-2.3,0.9-3.6c-0.7-1.2-2.3-1.6-3.6-0.9
			C-741.9-515.4-742.3-513.8-741.6-512.6z"/>
		<path class="st7" d="M-786.1-438.3c0.7,1.2,2.3,1.6,3.6,0.9c1.3-0.7,1.6-2.3,0.9-3.6c-0.7-1.2-2.3-1.7-3.6-0.9
			C-786.4-441.1-786.8-439.5-786.1-438.3z"/>
		<path class="st7" d="M-764.2-423.5c0.7,1.2,2.3,1.6,3.6,0.9c1.3-0.8,1.7-2.3,0.9-3.6c-0.7-1.2-2.3-1.6-3.6-0.9
			C-764.5-426.3-764.9-424.7-764.2-423.5z"/>
		<path class="st7" d="M-842.9-449.8c0.7,1.2,2.3,1.6,3.6,0.9c1.2-0.8,1.6-2.3,0.9-3.6c-0.7-1.2-2.3-1.6-3.6-0.9
			C-843.3-452.6-843.6-451-842.9-449.8z"/>
		<path class="st7" d="M-850.2-407c0.7,1.2,2.3,1.6,3.6,0.9c1.2-0.8,1.6-2.3,0.9-3.6c-0.7-1.2-2.3-1.6-3.6-0.9
			C-850.5-409.8-850.9-408.2-850.2-407z"/>
		<path class="st7" d="M-918-442.7c0.7,1.3,2.3,1.7,3.6,0.9c1.3-0.7,1.7-2.3,0.9-3.6c-0.7-1.2-2.3-1.6-3.6-0.9
			C-918.3-445.5-918.7-443.9-918-442.7z"/>
		<path class="st7" d="M-993.1-334.5c0.7,1.3,2.3,1.7,3.6,0.9c1.3-0.7,1.6-2.3,0.9-3.6c-0.7-1.2-2.3-1.7-3.6-0.9
			C-993.4-337.3-993.8-335.7-993.1-334.5z"/>
		<path class="st7" d="M-923.3-347.5c0.8,1.3,2.3,1.7,3.6,0.9c1.2-0.7,1.6-2.3,0.9-3.6c-0.7-1.2-2.3-1.6-3.6-0.9
			C-923.7-350.3-924-348.8-923.3-347.5z"/>
		<path class="st7" d="M-845.6-578.2c0.7,1.3,2.3,1.7,3.6,0.9c1.2-0.7,1.6-2.3,0.9-3.6c-0.7-1.2-2.3-1.6-3.6-0.9
			C-845.9-581-846.3-579.4-845.6-578.2z"/>
		<path class="st7" d="M-878.7-573c0.8,1.3,2.3,1.7,3.6,0.9c1.2-0.8,1.6-2.3,0.9-3.6c-0.7-1.2-2.3-1.6-3.6-0.9
			C-879-575.9-879.4-574.3-878.7-573z"/>
		<path class="st7" d="M-903.8-504.4c0.7,1.2,2.3,1.6,3.6,0.9c1.2-0.8,1.6-2.3,0.9-3.6c-0.8-1.3-2.3-1.7-3.6-0.9
			C-904.2-507.3-904.6-505.7-903.8-504.4z"/>
		<path class="st7" d="M-986.4-479.5c0.7,1.2,2.3,1.7,3.6,0.9c1.2-0.7,1.6-2.3,0.9-3.6c-0.7-1.3-2.3-1.7-3.6-0.9
			C-986.7-482.4-987.1-480.8-986.4-479.5z"/>
		<path class="st7" d="M-1052.2-433.3c0.7,1.2,2.3,1.7,3.6,0.9c1.2-0.8,1.6-2.3,0.9-3.6c-0.7-1.3-2.3-1.7-3.6-0.9
			C-1052.6-436.2-1052.9-434.6-1052.2-433.3z"/>
		<path class="st7" d="M-1063.3-452.4c0.5,0.9,1.8,1.3,2.7,0.7c0.9-0.5,1.2-1.8,0.7-2.7c-0.5-0.9-1.7-1.2-2.7-0.7
			C-1063.5-454.5-1063.8-453.3-1063.3-452.4z"/>
		<path class="st7" d="M-1053-455.9c0.7,1.2,2.3,1.6,3.6,0.9c1.2-0.7,1.6-2.3,0.9-3.5c-0.7-1.2-2.3-1.6-3.5-0.9
			C-1053.4-458.7-1053.8-457.1-1053-455.9z"/>
		<path class="st7" d="M-830.1-526.3c0.7,1.2,2.3,1.6,3.6,0.9c1.3-0.7,1.6-2.3,0.9-3.6c-0.7-1.3-2.3-1.7-3.6-0.9
			C-830.4-529.2-830.8-527.6-830.1-526.3z"/>
		<polygon class="st7" points="-623.8,-584.7 -601.9,-567.3 -601.9,-591.1 -601.5,-591.2 -601.5,-566.9 -601.5,-566.7 
			-601.7,-566.6 -624.3,-584.6 		"/>
		<polygon class="st7" points="-624.9,-585.3 -601.6,-591.5 -601.8,-591.1 -624.7,-584.9 		"/>
	</g>
	
		<rect x="-949.8" y="-659.5" transform="matrix(0.2449 -0.9695 0.9695 0.2449 -109.2547 -1165.0969)" class="st8" width="294.2" height="294.2"/>
</g>
<g>
	<g>
		<g>
			
				<text transform="matrix(1 0 0 1 -230.8404 -479.2368)" style="fill:#211E1F; font-family:'WorkSans-Medium'; font-size:9.1463px; letter-spacing:3;">enabling solutions</text>
		</g>
	</g>
	<g>
		<g>
			<g>
				<g>
					<g>
						<g>
							<g>
								<g>
									<path class="st9" d="M-150.8-502.9l0.1,0.9c0.6-0.7,1.3-1,2.2-1c1,0,1.7,0.4,2.1,1.2c0.5-0.8,1.3-1.2,2.3-1.2
										c0.8,0,1.5,0.2,1.9,0.7c0.4,0.5,0.6,1.2,0.6,2.2v5h-2.1v-5c0-0.4-0.1-0.8-0.3-1c-0.2-0.2-0.5-0.3-0.9-0.3
										c-0.6,0-1.1,0.3-1.3,0.9l0,5.4h-2.1v-5c0-0.5-0.1-0.8-0.3-1c-0.2-0.2-0.5-0.3-0.9-0.3c-0.6,0-1,0.2-1.3,0.7v5.5h-2.1v-7.8
										H-150.8z"/>
								</g>
							</g>
							<g>
								<g>
									<path class="st9" d="M-129-494.9c-1.1,0-2.1-0.4-2.8-1.1c-0.7-0.7-1.1-1.6-1.1-2.8v-0.2c0-0.8,0.2-1.5,0.5-2.1
										c0.3-0.6,0.7-1.1,1.3-1.4c0.6-0.3,1.2-0.5,1.9-0.5c1.1,0,1.9,0.3,2.5,1s0.9,1.6,0.9,2.9v0.8h-5c0.1,0.5,0.3,0.9,0.6,1.2
										c0.3,0.3,0.8,0.5,1.3,0.5c0.8,0,1.4-0.3,1.9-0.9l1,1.1c-0.3,0.4-0.7,0.8-1.3,1S-128.3-494.9-129-494.9z M-129.2-501.3
										c-0.4,0-0.7,0.1-1,0.4c-0.3,0.3-0.4,0.7-0.5,1.2h2.9v-0.2c0-0.5-0.1-0.8-0.4-1.1C-128.4-501.2-128.8-501.3-129.2-501.3z"/>
								</g>
							</g>
							<g>
								<g>
									<path class="st9" d="M-117.5-499c0-1.2,0.3-2.2,0.8-2.9c0.5-0.7,1.3-1.1,2.2-1.1c0.8,0,1.4,0.3,1.9,0.9v-4h2.1v11.1h-1.9
										l-0.1-0.8c-0.5,0.6-1.2,1-2,1c-0.9,0-1.7-0.4-2.2-1.1C-117.3-496.7-117.5-497.8-117.5-499z M-115.5-498.9
										c0,0.7,0.1,1.3,0.4,1.7c0.3,0.4,0.6,0.6,1.1,0.6c0.6,0,1.1-0.3,1.4-0.8v-3.1c-0.3-0.5-0.7-0.8-1.3-0.8
										C-115-501.3-115.5-500.5-115.5-498.9z"/>
								</g>
							</g>
							<g>
								<g>
									<path class="st9" d="M-101.6-504.9c0-0.3,0.1-0.6,0.3-0.8c0.2-0.2,0.5-0.3,0.9-0.3c0.4,0,0.6,0.1,0.8,0.3
										c0.2,0.2,0.3,0.5,0.3,0.8c0,0.3-0.1,0.6-0.3,0.8c-0.2,0.2-0.5,0.3-0.8,0.3c-0.4,0-0.6-0.1-0.8-0.3
										C-101.4-504.3-101.6-504.6-101.6-504.9z M-99.3-495.1h-2.1v-7.8h2.1V-495.1z"/>
								</g>
							</g>
							<g>
								<g>
									<path class="st9" d="M-85.7-495.1c-0.1-0.2-0.2-0.4-0.2-0.7c-0.5,0.6-1.2,0.8-2,0.8c-0.8,0-1.4-0.2-1.9-0.7
										c-0.5-0.4-0.8-1-0.8-1.7c0-0.8,0.3-1.5,0.9-1.9c0.6-0.4,1.5-0.7,2.7-0.7h1v-0.4c0-0.4-0.1-0.6-0.3-0.9
										c-0.2-0.2-0.5-0.3-0.9-0.3c-0.4,0-0.6,0.1-0.8,0.3c-0.2,0.2-0.3,0.4-0.3,0.7h-2.1c0-0.5,0.1-0.9,0.4-1.3
										c0.3-0.4,0.7-0.7,1.2-0.9c0.5-0.2,1.1-0.3,1.7-0.3c1,0,1.7,0.2,2.3,0.7c0.6,0.5,0.8,1.2,0.8,2v3.4c0,0.7,0.1,1.3,0.3,1.7
										v0.1H-85.7z M-87.5-496.5c0.3,0,0.6-0.1,0.8-0.2c0.3-0.1,0.5-0.3,0.6-0.6v-1.3h-0.8c-1,0-1.6,0.4-1.7,1.1l0,0.1
										c0,0.3,0.1,0.5,0.3,0.6C-88-496.6-87.8-496.5-87.5-496.5z"/>
								</g>
							</g>
						</g>
					</g>
					<path class="st10" d="M-170.8-548.8c10.5,0,11.8,3.6,11.8,3.6s-7.1-0.2-11.8,7.8c-4.7-8.1-11.8-7.8-11.8-7.8
						S-181.3-548.8-170.8-548.8z"/>
					<g>
						<g>
							<path class="st9" d="M-77.9-510.7l-7.6-7.6v1.6c-0.7,0.6-1.3,1.1-1.9,1.4c-0.8,0.4-1.8,0.6-2.9,0.6c-2,0-3.7-0.8-4.9-2.3
								c-1.3-1.6-1.9-4.2-1.9-7.7c0-3.5,0.6-6.1,1.9-7.7c1.2-1.5,2.9-2.3,4.9-2.3c1.1,0,2.1,0.2,2.9,0.6c0.5,0.3,1.1,0.7,1.7,1.2
								v1.9l1-1c0,0,0,0,0,0l5.9-5.9c0,0,0,0,0,0l0.8-0.8l-1.6,0c-1.3-1.2-2.7-2.1-4.2-2.7c-1.9-0.8-4-1.1-6.4-1.1
								c-1.9,0-3.8,0.3-5.6,0.9c-1.8,0.6-3.5,1.5-5,2.9c-1.5,1.3-2.7,3.2-3.6,5.5c-0.9,2.3-1.4,5.2-1.4,8.5c0,3.3,0.5,6.2,1.4,8.5
								c0.9,2.3,2.1,4.2,3.6,5.5c1.5,1.4,3.2,2.3,5,2.9c1.8,0.6,3.7,0.9,5.6,0.9c4.1,0,7.6-1.3,10.5-3.8L-77.9-510.7z"/>
						</g>
						<g>
							<path class="st9" d="M-186.1-529.7c-1.5,0-2.7,1.2-2.7,2.7c0,1.5,1.2,2.7,2.7,2.7c1.5,0,2.7-1.2,2.7-2.7
								C-183.4-528.5-184.6-529.7-186.1-529.7z"/>
						</g>
						<g>
							<path class="st9" d="M-155.6-529.7c-1.5,0-2.7,1.2-2.7,2.7c0,1.5,1.2,2.7,2.7,2.7c1.5,0,2.7-1.2,2.7-2.7
								C-153-528.5-154.2-529.7-155.6-529.7z"/>
						</g>
						<g>
							<g>
								<path class="st9" d="M-141.6-537.7l4.7-4.7h-4.7h0h-13.8l0,0c-8.1,0-12.6,4-13.6,11.7h-3.4c-0.9-7.8-5.5-11.7-13.7-11.7
									c0,0,0,0,0,0v0h-13.8h0h-4.7l4.7,4.7v9.8c0,0.1,0,0.2,0,0.3v32.3h7.3v-17.6h6.6c7.7,0,12.3-3.5,13.5-10.5h3.4v28h7.3v-17.6
									h6.6c9.2,0,13.9-5,13.9-14.7c0-1-0.1-1.9-0.1-2.7V-537.7z M-180.7-522c-1,1.3-2.8,2-5.4,2h-6.6v-7.5c0-2.6,0.4-4.5,1.2-5.6
									c1-1.3,2.8-2,5.3-2c2.6,0,4.4,0.7,5.4,2c0.8,1.1,1.2,3,1.2,5.6C-179.4-525-179.9-523.1-180.7-522z M-150-522
									c-1,1.3-2.8,2-5.4,2h-6.6v-7.5c0-2.6,0.4-4.5,1.2-5.6c1-1.3,2.8-2,5.3-2c2.6,0,4.4,0.7,5.4,2c0.8,1.1,1.2,3,1.2,5.6
									C-148.8-525-149.2-523.1-150-522z"/>
							</g>
						</g>
						<g>
							<path class="st9" d="M-204.4-527.9v-2c0-8.2-4.9-12.3-14.8-12.3c-3,0-5.4,0.3-7.3,1c-1.5,0.6-3,1.5-4.3,2.8l-1.9,0l7.3,7.3
								v-1.8c0.7-0.6,1.3-1.1,2-1.4c1-0.4,2.2-0.6,3.8-0.6c2.3,0,4,0.4,5,1.3c1,0.9,1.5,2.3,1.5,4.2v1.7h-8.2
								c-3.9,0-6.8,0.9-8.8,2.8c-2,1.9-3,4.3-3,7.2c0,3.2,1,5.8,2.9,7.8c1.3,1.3,3,2.2,5.1,2.7c0.2,0,1.1,0.2,1.6,0.2
								c2,0,6.2-0.7,6.2-7c-0.7,0.1-1.5,0.2-2.4,0.2c-1.6,0-2.9-0.4-3.7-1.1c-0.8-0.7-1.3-1.7-1.3-2.9c0-2.6,1.6-3.9,4.9-3.9h2.5
								h4.3h0v1.9c0,0.1,0,0.3,0,0.4v4.8h0v7.6h3.1c0.1,0,0.1,0,0.1,0c0,0,0,0,0,0h5.4v-14.2l3.3-3.3L-204.4-527.9z"/>
						</g>
						<g>
							<path class="st9" d="M-110.6-527.9v-2c0-8.2-4.9-12.3-14.8-12.3c-3,0-5.4,0.3-7.3,1c-1.5,0.6-3,1.5-4.3,2.8l-1.9,0l7.3,7.3
								v-1.8c0.7-0.6,1.3-1.1,2-1.4c1-0.4,2.2-0.6,3.8-0.6c2.3,0,4,0.4,5,1.3c1,0.9,1.5,2.3,1.5,4.2v1.7h-8.2
								c-3.9,0-6.8,0.9-8.8,2.8c-2,1.9-3,4.3-3,7.2c0,3.2,1,5.8,2.9,7.8c1.3,1.3,3,2.2,5.1,2.7c0.2,0,1.1,0.2,1.6,0.2
								c2,0,6.2-0.7,6.2-7c-0.7,0.1-1.5,0.2-2.4,0.2c-1.6,0-2.9-0.4-3.7-1.1c-0.8-0.7-1.3-1.7-1.3-2.9c0-2.6,1.6-3.9,4.9-3.9h2.5
								h4.3h0v1.9c0,0.1,0,0.3,0,0.4v4.8h0v7.6h3.1c0.1,0,0.1,0,0.1,0c0,0,0,0,0,0h5.4v-14.2l3.3-3.3L-110.6-527.9z"/>
						</g>
					</g>
				</g>
				<g>
					<g>
						<g>
							<path class="st9" d="M-79.2-548.4c0.4,0.2,0.7,0.6,1,1c0.2,0.4,0.4,0.8,0.4,1.3c0,0.5-0.1,0.9-0.4,1.3c-0.2,0.4-0.6,0.7-1,1
								c-0.4,0.2-0.9,0.4-1.3,0.4c-0.5,0-0.9-0.1-1.3-0.4c-0.4-0.2-0.7-0.6-1-1c-0.2-0.4-0.3-0.8-0.3-1.3c0-0.5,0.1-0.9,0.4-1.3
								s0.6-0.7,1-1c0.4-0.2,0.9-0.4,1.3-0.4C-80.1-548.8-79.6-548.7-79.2-548.4z M-79.6-544.4c0.3-0.2,0.6-0.4,0.7-0.7
								c0.2-0.3,0.3-0.6,0.3-1c0-0.4-0.1-0.7-0.3-1c-0.2-0.3-0.4-0.5-0.7-0.7c-0.3-0.2-0.6-0.3-1-0.3c-0.4,0-0.7,0.1-1,0.3
								c-0.3,0.2-0.5,0.4-0.7,0.7c-0.2,0.3-0.3,0.6-0.3,1c0,0.4,0.1,0.7,0.3,1c0.2,0.3,0.4,0.5,0.7,0.7c0.3,0.2,0.6,0.3,1,0.3
								C-80.2-544.1-79.9-544.2-79.6-544.4z M-79.6-546.1c-0.1,0.1-0.2,0.2-0.3,0.3l0.5,0.8h-0.7l-0.4-0.7h0h-0.4v0.7h-0.6v-2.5h1.1
								c0.3,0,0.6,0.1,0.8,0.2c0.2,0.2,0.3,0.4,0.3,0.6C-79.5-546.4-79.5-546.3-79.6-546.1z M-80.9-546.2h0.4c0.1,0,0.2,0,0.3-0.1
								c0.1-0.1,0.1-0.2,0.1-0.3c0-0.1,0-0.2-0.1-0.3c-0.1-0.1-0.2-0.1-0.3-0.1h-0.4V-546.2z"/>
						</g>
					</g>
				</g>
			</g>
		</g>
	</g>
</g>
<rect x="-761.3" y="558.3" class="st8" width="603.9" height="106.1"/>
<text transform="matrix(1 0 0 1 -761.2938 577.0339)"><tspan x="0" y="0" style="fill:#292E6B; font-family:'WorkSans-SemiBold'; font-size:20px;">We Don’t Employ People</tspan><tspan x="241.2" y="0" style="fill:#292E6B; font-family:'WorkSans-SemiBold'; font-size:10px;">       </tspan><tspan x="262.3" y="0" style="fill:#292E6B; font-family:'WorkSans-SemiBold'; font-size:26px;">“ We Empower People ” </tspan></text>
<g class="st11">
	<g>
		<g>
			<g>
				<path class="st12" d="M-546.5-65.8h-4.1c0.1,0.5,0.2,0.9,0.5,1.2s0.7,0.4,1.1,0.4c0.4,0,0.7-0.1,0.9-0.2
					c0.2-0.1,0.4-0.3,0.6-0.6l1,0.5c-0.2,0.4-0.5,0.7-0.9,1c-0.4,0.2-0.9,0.4-1.5,0.4c-0.6,0-1.1-0.1-1.5-0.4c-0.4-0.2-0.8-0.6-1-1
					s-0.4-1-0.4-1.6c0-0.6,0.1-1.1,0.4-1.6s0.6-0.8,1-1c0.4-0.2,0.9-0.4,1.4-0.4c0.5,0,1,0.1,1.4,0.3c0.4,0.2,0.7,0.5,0.9,0.9
					s0.3,0.8,0.3,1.3C-546.4-66.3-546.4-66-546.5-65.8z M-550.1-67.8c-0.3,0.2-0.4,0.6-0.5,1.1h3c0-0.5-0.2-0.8-0.4-1
					c-0.2-0.2-0.6-0.4-1-0.4S-549.8-68-550.1-67.8z"/>
				<path class="st12" d="M-535.6-68.6c0.4,0.4,0.6,0.9,0.6,1.6v3.7h-1.2v-3.3c0-1-0.4-1.5-1.2-1.5c-0.4,0-0.8,0.1-1.1,0.4
					c-0.3,0.3-0.5,0.7-0.5,1.3v3h-1.2V-69h1.1l0.1,1c0.2-0.4,0.4-0.6,0.8-0.8c0.3-0.2,0.7-0.3,1.1-0.3
					C-536.5-69.1-536-68.9-535.6-68.6z"/>
				<path class="st12" d="M-523.1-64.2l-0.1,0.8c-0.2,0.1-0.4,0.1-0.7,0.1c-0.3,0-0.6-0.1-0.8-0.2c-0.2-0.1-0.4-0.3-0.4-0.6
					c-0.2,0.3-0.4,0.5-0.8,0.6c-0.3,0.1-0.7,0.2-1,0.2c-0.6,0-1-0.1-1.3-0.4c-0.3-0.3-0.5-0.6-0.5-1.1c0-0.4,0.1-0.8,0.4-1
					s0.7-0.5,1.2-0.6l2-0.4V-67c0-0.4-0.1-0.7-0.3-0.9s-0.5-0.3-0.9-0.3c-0.7,0-1.2,0.3-1.4,1l-1-0.4c0.1-0.5,0.4-0.8,0.9-1.1
					s1-0.4,1.6-0.4c0.7,0,1.3,0.2,1.7,0.5c0.4,0.3,0.6,0.8,0.6,1.5v2.5c0,0.3,0.1,0.4,0.4,0.4C-523.4-64.2-523.3-64.2-523.1-64.2z
					 M-525.6-64.5c0.3-0.2,0.4-0.5,0.4-0.9v-0.5l-1.4,0.3c-0.3,0.1-0.6,0.2-0.7,0.3c-0.2,0.1-0.2,0.3-0.2,0.5c0,0.2,0.1,0.4,0.2,0.5
					c0.2,0.1,0.4,0.2,0.6,0.2C-526.2-64.2-525.9-64.3-525.6-64.5z"/>
				<path class="st12" d="M-512.9-68.8c0.4,0.2,0.7,0.6,0.9,1c0.2,0.4,0.3,1,0.3,1.6c0,0.6-0.1,1.1-0.3,1.6c-0.2,0.4-0.5,0.8-0.9,1
					c-0.4,0.2-0.8,0.4-1.3,0.4c-0.4,0-0.8-0.1-1.2-0.3c-0.3-0.2-0.6-0.5-0.8-0.9l-0.1,1.1h-1.1v-8.2h1.2v3.5
					c0.2-0.3,0.4-0.6,0.7-0.8c0.3-0.2,0.7-0.3,1.1-0.3C-513.7-69.1-513.3-69-512.9-68.8z M-513.3-64.7c0.3-0.3,0.4-0.8,0.4-1.4
					c0-0.6-0.1-1.1-0.4-1.4c-0.3-0.3-0.7-0.5-1.1-0.5c-0.5,0-0.9,0.2-1.1,0.5c-0.3,0.4-0.4,0.8-0.4,1.4s0.1,1.1,0.4,1.4
					s0.7,0.5,1.1,0.5C-514-64.2-513.6-64.4-513.3-64.7z"/>
				<path class="st12" d="M-504.2-64.9c0,0.3,0,0.5,0.1,0.6c0.1,0.1,0.3,0.2,0.5,0.2c0.1,0,0.3,0,0.4,0c0.1,0,0.2-0.1,0.3-0.1
					l-0.1,0.9c-0.3,0.1-0.6,0.2-0.9,0.2c-0.5,0-0.9-0.1-1.1-0.4c-0.2-0.3-0.4-0.7-0.4-1.2v-6.7h1.2V-64.9z"/>
				<path class="st12" d="M-497.1-70.1c-0.1-0.1-0.2-0.3-0.2-0.6c0-0.2,0.1-0.4,0.2-0.6c0.1-0.1,0.3-0.2,0.6-0.2s0.5,0.1,0.6,0.2
					s0.2,0.3,0.2,0.6c0,0.2-0.1,0.4-0.2,0.6s-0.3,0.2-0.6,0.2S-497-70-497.1-70.1z M-495.9-63.3h-1.2V-69h1.2V-63.3z"/>
				<path class="st12" d="M-484.7-68.6c0.4,0.4,0.6,0.9,0.6,1.6v3.7h-1.2v-3.3c0-1-0.4-1.5-1.2-1.5c-0.4,0-0.8,0.1-1.1,0.4
					c-0.3,0.3-0.5,0.7-0.5,1.3v3h-1.2V-69h1.1l0.1,1c0.2-0.4,0.4-0.6,0.8-0.8c0.3-0.2,0.7-0.3,1.1-0.3
					C-485.6-69.1-485.1-68.9-484.7-68.6z"/>
				<path class="st12" d="M-473.3-69.1c-0.2,0.1-0.3,0.3-0.4,0.6c0.4,0.4,0.6,0.8,0.6,1.3c0,0.6-0.2,1-0.7,1.4
					c-0.4,0.4-1,0.5-1.8,0.5c-0.3,0-0.6,0-0.8-0.1c-0.4,0.1-0.6,0.3-0.6,0.6c0,0.4,0.3,0.6,0.8,0.6h1.7c0.6,0,1,0.1,1.3,0.4
					c0.3,0.3,0.5,0.6,0.5,1c0,0.6-0.3,1-0.8,1.4s-1.2,0.5-2,0.5c-0.9,0-1.6-0.1-2-0.4c-0.5-0.3-0.7-0.6-0.7-1.1
					c0-0.3,0.1-0.5,0.2-0.7c0.2-0.2,0.4-0.3,0.7-0.4c-0.5-0.2-0.7-0.5-0.7-1c0-0.2,0.1-0.5,0.2-0.7c0.1-0.2,0.4-0.3,0.6-0.4
					c-0.3-0.2-0.5-0.4-0.7-0.6c-0.2-0.3-0.2-0.6-0.2-0.9c0-0.6,0.2-1,0.7-1.4s1-0.5,1.8-0.5c0.5,0,0.9,0.1,1.3,0.2
					c0.1-0.4,0.2-0.7,0.5-1c0.3-0.2,0.7-0.4,1.1-0.3l0.2,0.9C-472.8-69.3-473.1-69.2-473.3-69.1z M-476.4-63.2
					c-0.2,0-0.4,0.1-0.5,0.2s-0.2,0.3-0.2,0.4c0,0.2,0.2,0.4,0.5,0.6c0.3,0.1,0.7,0.2,1.3,0.2c0.6,0,1-0.1,1.4-0.2
					c0.3-0.2,0.5-0.4,0.5-0.6c0-0.2-0.1-0.3-0.2-0.4c-0.1-0.1-0.4-0.1-0.7-0.1H-476.4z M-474.6-66.4c0.2-0.2,0.3-0.5,0.3-0.8
					s-0.1-0.6-0.3-0.8c-0.2-0.2-0.5-0.3-0.9-0.3c-0.3,0-0.6,0.1-0.9,0.3c-0.2,0.2-0.3,0.5-0.3,0.8s0.1,0.6,0.3,0.8
					c0.2,0.2,0.5,0.3,0.9,0.3C-475.1-66.1-474.8-66.2-474.6-66.4z"/>
				<path class="st12" d="M-457.7-63.6c-0.5-0.2-0.8-0.5-1.1-0.9l0.8-0.7c0.2,0.3,0.4,0.6,0.7,0.7c0.3,0.2,0.7,0.3,1.1,0.3
					c0.3,0,0.6-0.1,0.8-0.2s0.3-0.3,0.3-0.5c0-0.2-0.1-0.3-0.2-0.4c-0.1-0.1-0.3-0.2-0.5-0.2l-1.2-0.2c-0.6-0.1-1-0.3-1.3-0.6
					c-0.3-0.3-0.4-0.6-0.4-1c0-0.3,0.1-0.6,0.3-0.9s0.5-0.5,0.8-0.6c0.4-0.2,0.8-0.2,1.2-0.2c0.6,0,1,0.1,1.4,0.3
					c0.4,0.2,0.7,0.5,0.9,0.9l-0.8,0.7c-0.1-0.3-0.4-0.5-0.6-0.7c-0.3-0.2-0.6-0.2-0.9-0.2c-0.4,0-0.6,0.1-0.8,0.2
					c-0.2,0.1-0.3,0.3-0.3,0.5c0,0.2,0.1,0.3,0.2,0.4c0.1,0.1,0.3,0.2,0.6,0.3l1.3,0.3c0.5,0.1,0.9,0.3,1.1,0.5
					c0.2,0.2,0.3,0.6,0.3,0.9c0,0.5-0.2,1-0.6,1.3c-0.4,0.3-1,0.5-1.7,0.5C-456.7-63.2-457.3-63.3-457.7-63.6z"/>
				<path class="st12" d="M-443.7-68.8c0.4,0.2,0.8,0.6,1,1s0.4,1,0.4,1.6c0,0.6-0.1,1.1-0.4,1.6s-0.6,0.8-1,1
					c-0.4,0.2-0.9,0.4-1.5,0.4s-1-0.1-1.5-0.4c-0.4-0.2-0.8-0.6-1-1s-0.4-1-0.4-1.6c0-0.6,0.1-1.1,0.4-1.6s0.6-0.8,1-1
					c0.4-0.2,0.9-0.4,1.5-0.4S-444.1-69-443.7-68.8z M-446.4-67.6c-0.3,0.3-0.4,0.8-0.4,1.5c0,0.6,0.1,1.1,0.4,1.5
					c0.3,0.3,0.7,0.5,1.2,0.5c0.5,0,0.9-0.2,1.2-0.5s0.4-0.8,0.4-1.5c0-0.6-0.1-1.1-0.4-1.5s-0.7-0.5-1.2-0.5
					C-445.7-68.2-446.1-68-446.4-67.6z"/>
				<path class="st12" d="M-434.9-64.9c0,0.3,0,0.5,0.1,0.6c0.1,0.1,0.3,0.2,0.5,0.2c0.1,0,0.3,0,0.3,0c0.1,0,0.2-0.1,0.4-0.1
					l-0.1,0.9c-0.3,0.1-0.6,0.2-0.9,0.2c-0.5,0-0.9-0.1-1.1-0.4s-0.4-0.7-0.4-1.2v-6.7h1.2V-64.9z"/>
				<path class="st12" d="M-427.3-63.7c-0.4-0.3-0.6-0.8-0.6-1.5V-69h1.2v3.4c0,0.5,0.1,0.8,0.3,1c0.2,0.2,0.5,0.3,0.9,0.3
					s0.8-0.1,1-0.4c0.3-0.3,0.4-0.7,0.4-1.3V-69h1.2v5.6h-1.1l-0.1-0.9c-0.4,0.7-1,1-2,1C-426.4-63.2-426.9-63.4-427.3-63.7z"/>
				<path class="st12" d="M-412.4-63.7c-0.4,0.3-0.9,0.5-1.5,0.5c-0.5,0-1-0.1-1.3-0.4c-0.3-0.3-0.5-0.7-0.5-1.2V-68h-1.1V-69h1.1
					v-1.3l1.2-0.3v1.7h1.9v0.9h-1.9v3c0,0.3,0.1,0.5,0.2,0.6c0.1,0.1,0.3,0.2,0.6,0.2c0.4,0,0.7-0.1,0.9-0.4L-412.4-63.7z"/>
				<path class="st12" d="M-406.6-70.1c-0.1-0.1-0.2-0.3-0.2-0.6c0-0.2,0.1-0.4,0.2-0.6c0.1-0.1,0.3-0.2,0.6-0.2s0.5,0.1,0.6,0.2
					s0.2,0.3,0.2,0.6c0,0.2-0.1,0.4-0.2,0.6s-0.3,0.2-0.6,0.2S-406.4-70-406.6-70.1z M-405.4-63.3h-1.2V-69h1.2V-63.3z"/>
				<path class="st12" d="M-394.8-68.8c0.4,0.2,0.8,0.6,1,1s0.4,1,0.4,1.6c0,0.6-0.1,1.1-0.4,1.6s-0.6,0.8-1,1
					c-0.4,0.2-0.9,0.4-1.5,0.4s-1-0.1-1.5-0.4c-0.4-0.2-0.8-0.6-1-1s-0.4-1-0.4-1.6c0-0.6,0.1-1.1,0.4-1.6s0.6-0.8,1-1
					c0.4-0.2,0.9-0.4,1.5-0.4S-395.3-69-394.8-68.8z M-397.5-67.6c-0.3,0.3-0.4,0.8-0.4,1.5c0,0.6,0.1,1.1,0.4,1.5
					c0.3,0.3,0.7,0.5,1.2,0.5c0.5,0,0.9-0.2,1.2-0.5s0.4-0.8,0.4-1.5c0-0.6-0.1-1.1-0.4-1.5s-0.7-0.5-1.2-0.5
					C-396.8-68.2-397.2-68-397.5-67.6z"/>
				<path class="st12" d="M-382.7-68.6c0.4,0.4,0.6,0.9,0.6,1.6v3.7h-1.2v-3.3c0-1-0.4-1.5-1.2-1.5c-0.4,0-0.8,0.1-1.1,0.4
					c-0.3,0.3-0.5,0.7-0.5,1.3v3h-1.2V-69h1.1l0.1,1c0.2-0.4,0.4-0.6,0.8-0.8s0.7-0.3,1.1-0.3C-383.6-69.1-383.1-68.9-382.7-68.6z"
					/>
				<path class="st12" d="M-374.9-63.6c-0.5-0.2-0.8-0.5-1.1-0.9l0.8-0.7c0.2,0.3,0.4,0.6,0.7,0.7c0.3,0.2,0.7,0.3,1.1,0.3
					c0.3,0,0.6-0.1,0.8-0.2s0.3-0.3,0.3-0.5c0-0.2-0.1-0.3-0.2-0.4c-0.1-0.1-0.3-0.2-0.5-0.2l-1.2-0.2c-0.6-0.1-1-0.3-1.3-0.6
					c-0.3-0.3-0.4-0.6-0.4-1c0-0.3,0.1-0.6,0.3-0.9s0.5-0.5,0.8-0.6c0.4-0.2,0.8-0.2,1.2-0.2c0.6,0,1,0.1,1.4,0.3
					c0.4,0.2,0.7,0.5,0.9,0.9l-0.8,0.7c-0.1-0.3-0.4-0.5-0.6-0.7c-0.3-0.2-0.6-0.2-0.9-0.2c-0.4,0-0.6,0.1-0.8,0.2
					c-0.2,0.1-0.3,0.3-0.3,0.5c0,0.2,0.1,0.3,0.2,0.4c0.1,0.1,0.3,0.2,0.6,0.3l1.3,0.3c0.5,0.1,0.9,0.3,1.1,0.5s0.3,0.6,0.3,0.9
					c0,0.5-0.2,1-0.6,1.3c-0.4,0.3-1,0.5-1.7,0.5C-373.9-63.2-374.4-63.3-374.9-63.6z"/>
			</g>
		</g>
	</g>
	<g>
		<g>
			<g>
				<g>
					<g>
						<g>
							<g>
								<g>
									<path class="st12" d="M-453.5-92.5l0.1,1.1c0.7-0.8,1.6-1.3,2.8-1.3c1.2,0,2.1,0.5,2.6,1.5c0.7-1,1.6-1.5,2.9-1.5
										c1,0,1.8,0.3,2.3,0.9c0.5,0.6,0.8,1.5,0.8,2.7v6.1h-2.6v-6.1c0-0.5-0.1-0.9-0.3-1.2c-0.2-0.3-0.6-0.4-1.1-0.4
										c-0.8,0-1.3,0.4-1.6,1.1l0,6.6h-2.6v-6.1c0-0.6-0.1-1-0.3-1.2c-0.2-0.2-0.6-0.4-1.1-0.4c-0.7,0-1.3,0.3-1.6,0.9v6.8h-2.6
										v-9.6H-453.5z"/>
								</g>
							</g>
							<g>
								<g>
									<path class="st12" d="M-426.6-82.7c-1.4,0-2.6-0.4-3.4-1.3c-0.9-0.9-1.3-2-1.3-3.5v-0.2c0-1,0.2-1.8,0.6-2.6
										c0.4-0.8,0.9-1.3,1.6-1.8c0.7-0.4,1.5-0.6,2.3-0.6c1.3,0,2.4,0.4,3.1,1.2c0.8,0.8,1.1,2,1.1,3.5v1h-6.1
										c0.1,0.6,0.3,1.1,0.8,1.5c0.4,0.4,0.9,0.6,1.6,0.6c1,0,1.8-0.4,2.3-1.1l1.3,1.4c-0.4,0.5-0.9,1-1.6,1.3
										C-425.1-82.9-425.8-82.7-426.6-82.7z M-426.9-90.6c-0.5,0-0.9,0.2-1.2,0.5c-0.3,0.3-0.5,0.8-0.6,1.5h3.6v-0.2
										c0-0.6-0.2-1-0.5-1.3C-425.9-90.5-426.4-90.6-426.9-90.6z"/>
								</g>
							</g>
							<g>
								<g>
									<path class="st12" d="M-412.5-87.8c0-1.5,0.3-2.7,1-3.6c0.7-0.9,1.6-1.3,2.8-1.3c0.9,0,1.7,0.4,2.3,1v-4.9h2.6v13.7h-2.3
										l-0.1-1c-0.6,0.8-1.5,1.2-2.5,1.2c-1.1,0-2-0.4-2.7-1.3S-412.5-86.2-412.5-87.8z M-409.9-87.6c0,0.9,0.2,1.6,0.5,2.1
										c0.3,0.5,0.8,0.7,1.4,0.7c0.8,0,1.4-0.3,1.7-1v-3.8c-0.3-0.7-0.9-1-1.7-1C-409.3-90.6-409.9-89.6-409.9-87.6z"/>
								</g>
							</g>
							<g>
								<g>
									<path class="st12" d="M-392.7-95c0-0.4,0.1-0.7,0.4-1c0.3-0.2,0.6-0.4,1.1-0.4c0.4,0,0.8,0.1,1,0.4c0.3,0.2,0.4,0.6,0.4,1
										c0,0.4-0.1,0.7-0.4,1c-0.3,0.2-0.6,0.4-1,0.4c-0.4,0-0.8-0.1-1-0.4C-392.6-94.3-392.7-94.6-392.7-95z M-390-82.9h-2.6v-9.6
										h2.6V-82.9z"/>
								</g>
							</g>
							<g>
								<g>
									<path class="st12" d="M-373.2-82.9c-0.1-0.2-0.2-0.5-0.3-0.9c-0.6,0.7-1.4,1-2.4,1c-0.9,0-1.7-0.3-2.3-0.8
										c-0.6-0.5-0.9-1.2-0.9-2.1c0-1,0.4-1.8,1.1-2.3c0.8-0.5,1.8-0.8,3.3-0.8h1.2v-0.6c0-0.4-0.1-0.8-0.3-1.1
										c-0.2-0.3-0.6-0.4-1.1-0.4c-0.4,0-0.8,0.1-1,0.3c-0.2,0.2-0.4,0.5-0.4,0.9h-2.6c0-0.6,0.2-1.1,0.5-1.5
										c0.3-0.5,0.8-0.8,1.5-1.1c0.6-0.3,1.3-0.4,2.1-0.4c1.2,0,2.1,0.3,2.8,0.9c0.7,0.6,1,1.4,1,2.5v4.2c0,0.9,0.1,1.6,0.4,2.1
										v0.2H-373.2z M-375.3-84.7c0.4,0,0.7-0.1,1-0.3c0.3-0.2,0.6-0.4,0.7-0.7v-1.7h-1c-1.3,0-2,0.4-2.1,1.3l0,0.2
										c0,0.3,0.1,0.6,0.3,0.8C-376-84.8-375.7-84.7-375.3-84.7z"/>
								</g>
							</g>
						</g>
					</g>
					<path class="st12" d="M-478.2-149.2c13,0,14.5,4.5,14.5,4.5s-8.7-0.3-14.5,9.6c-5.8-9.9-14.5-9.6-14.5-9.6
						S-491.2-149.2-478.2-149.2z"/>
					<g>
						<g>
							<path class="st12" d="M-363.6-102.2l-9.4-9.4v2c-0.8,0.7-1.6,1.4-2.4,1.7c-1,0.5-2.2,0.8-3.6,0.8c-2.5,0-4.6-0.9-6.1-2.8
								c-1.6-2-2.4-5.2-2.4-9.5c0-4.3,0.8-7.5,2.4-9.5c1.5-1.9,3.6-2.8,6.1-2.8c1.4,0,2.6,0.3,3.6,0.8c0.7,0.3,1.3,0.8,2.1,1.5v2.4
								l1.2-1.2c0,0,0,0,0,0l7.2-7.2c0,0,0,0,0,0l1-1l-2,0c-1.6-1.5-3.3-2.6-5.2-3.4c-2.3-0.9-4.9-1.4-7.9-1.4
								c-2.4,0-4.6,0.4-6.9,1.1c-2.2,0.7-4.3,1.9-6.1,3.5c-1.9,1.6-3.4,3.9-4.5,6.8c-1.1,2.9-1.7,6.4-1.7,10.5
								c0,4.1,0.6,7.6,1.7,10.5c1.1,2.9,2.6,5.2,4.5,6.8c1.9,1.7,3.9,2.9,6.1,3.6c2.2,0.7,4.5,1.1,6.9,1.1c5.1,0,9.4-1.6,12.9-4.7
								L-363.6-102.2z"/>
						</g>
						<g>
							<path class="st12" d="M-497.1-125.6c-1.8,0-3.3,1.5-3.3,3.3c0,1.8,1.5,3.3,3.3,3.3c1.8,0,3.3-1.5,3.3-3.3
								C-493.8-124.2-495.3-125.6-497.1-125.6z"/>
						</g>
						<g>
							<path class="st12" d="M-459.5-125.6c-1.8,0-3.3,1.5-3.3,3.3c0,1.8,1.5,3.3,3.3,3.3c1.8,0,3.3-1.5,3.3-3.3
								C-456.2-124.2-457.7-125.6-459.5-125.6z"/>
						</g>
						<g>
							<g>
								<path class="st12" d="M-442.2-135.5l5.8-5.8h-5.8h0h-17l0,0c-10,0-15.6,4.9-16.7,14.4h-4.2c-1.1-9.6-6.8-14.4-16.9-14.4
									c0,0,0,0,0,0v0h-17h0h-5.8l5.8,5.8v12.1c0,0.1,0,0.3,0,0.4v39.9h9v-21.7h8.1c9.6,0,15.1-4.3,16.7-12.9h4.2v34.6h9v-21.7h8.1
									c11.4,0,17.1-6.1,17.1-18.2c0-1.2-0.1-2.3-0.2-3.4V-135.5z M-490.4-116.2c-1.2,1.6-3.5,2.4-6.7,2.4h-8.1v-9.3
									c0-3.2,0.5-5.6,1.5-6.9c1.2-1.6,3.4-2.5,6.6-2.5c3.2,0,5.4,0.8,6.6,2.5c1,1.3,1.5,3.7,1.5,6.9
									C-488.9-119.9-489.4-117.5-490.4-116.2z M-452.5-116.2c-1.2,1.6-3.5,2.4-6.7,2.4h-8.1v-9.3c0-3.2,0.5-5.6,1.5-6.9
									c1.2-1.6,3.4-2.5,6.6-2.5c3.2,0,5.4,0.8,6.6,2.5c1,1.3,1.5,3.7,1.5,6.9C-451-119.9-451.5-117.5-452.5-116.2z"/>
							</g>
						</g>
						<g>
							<path class="st12" d="M-519.7-123.5v-2.5c0-10.1-6.1-15.1-18.3-15.1c-3.7,0-6.7,0.4-9,1.3c-1.9,0.7-3.6,1.9-5.3,3.5l-2.3,0
								l9,9v-2.2c0.8-0.8,1.7-1.4,2.5-1.7c1.2-0.5,2.8-0.8,4.7-0.8c2.8,0,4.9,0.5,6.1,1.6c1.2,1.1,1.8,2.8,1.8,5.1v2.1h-10.1
								c-4.8,0-8.4,1.2-10.9,3.5c-2.5,2.3-3.7,5.3-3.7,8.9c0,3.9,1.2,7.2,3.5,9.6c1.6,1.6,3.7,2.7,6.3,3.3c0.3,0.1,1.3,0.2,2,0.2
								c2.5,0,7.6-0.9,7.6-8.6c-0.8,0.1-1.8,0.2-3,0.2c-2,0-3.6-0.4-4.6-1.3c-1-0.9-1.6-2.1-1.6-3.6c0-3.2,2-4.8,6-4.8h3.1h5.3h0
								v2.3c0,0.2,0,0.3,0,0.5v5.9h0v9.3h3.8c0.1,0,0.1,0,0.2,0c0,0,0,0,0,0h6.7v-17.6l4.1-4.1L-519.7-123.5z"/>
						</g>
						<g>
							<path class="st12" d="M-403.9-123.5v-2.5c0-10.1-6.1-15.1-18.3-15.1c-3.7,0-6.7,0.4-9,1.3c-1.9,0.7-3.6,1.9-5.3,3.5l-2.3,0
								l9,9v-2.2c0.8-0.8,1.7-1.4,2.5-1.7c1.2-0.5,2.8-0.8,4.7-0.8c2.8,0,4.9,0.5,6.1,1.6c1.2,1.1,1.8,2.8,1.8,5.1v2.1h-10.1
								c-4.8,0-8.4,1.2-10.9,3.5c-2.5,2.3-3.7,5.3-3.7,8.9c0,3.9,1.2,7.2,3.5,9.6c1.6,1.6,3.7,2.7,6.2,3.3c0.3,0.1,1.3,0.2,2,0.2
								c2.5,0,7.6-0.9,7.6-8.6c-0.8,0.1-1.8,0.2-3,0.2c-2,0-3.6-0.4-4.6-1.3c-1-0.9-1.6-2.1-1.6-3.6c0-3.2,2-4.8,6-4.8h3.1h5.3h0
								v2.3c0,0.2,0,0.3,0,0.5v5.9h0v9.3h3.8c0.1,0,0.1,0,0.2,0c0,0,0,0,0,0h6.7v-17.6l4.1-4.1L-403.9-123.5z"/>
						</g>
					</g>
				</g>
				<g>
					<g>
						<g>
							<path class="st12" d="M-365.2-148.8c0.5,0.3,0.9,0.7,1.2,1.2c0.3,0.5,0.4,1,0.4,1.6c0,0.6-0.1,1.1-0.4,1.6
								c-0.3,0.5-0.7,0.9-1.2,1.2c-0.5,0.3-1.1,0.4-1.7,0.4c-0.6,0-1.1-0.1-1.6-0.4c-0.5-0.3-0.9-0.7-1.2-1.2
								c-0.3-0.5-0.4-1-0.4-1.6c0-0.6,0.1-1.1,0.4-1.6c0.3-0.5,0.7-0.9,1.2-1.2c0.5-0.3,1-0.4,1.7-0.4
								C-366.2-149.2-365.7-149.1-365.2-148.8z M-365.6-143.8c0.4-0.2,0.7-0.5,0.9-0.9c0.2-0.4,0.3-0.8,0.3-1.2
								c0-0.5-0.1-0.9-0.3-1.2c-0.2-0.4-0.5-0.7-0.9-0.9c-0.4-0.2-0.8-0.3-1.3-0.3c-0.5,0-0.9,0.1-1.3,0.3c-0.4,0.2-0.7,0.5-0.9,0.9
								c-0.2,0.4-0.3,0.8-0.3,1.2c0,0.5,0.1,0.9,0.3,1.2c0.2,0.4,0.5,0.7,0.9,0.9c0.4,0.2,0.8,0.3,1.2,0.3
								C-366.4-143.5-366-143.6-365.6-143.8z M-365.6-145.9c-0.1,0.2-0.2,0.3-0.4,0.4l0.6,1h-0.9l-0.5-0.8h0h-0.5v0.8h-0.8v-3.1h1.3
								c0.4,0,0.7,0.1,1,0.3c0.2,0.2,0.3,0.5,0.3,0.8C-365.5-146.3-365.5-146.1-365.6-145.9z M-367.3-146h0.5c0.2,0,0.3,0,0.4-0.1
								c0.1-0.1,0.1-0.2,0.1-0.4c0-0.2,0-0.3-0.1-0.4c-0.1-0.1-0.2-0.1-0.4-0.1h-0.5V-146z"/>
						</g>
					</g>
				</g>
			</g>
		</g>
	</g>
</g>
<g class="st11">
	<g>
		<g>
			<g>
				<path class="st12" d="M36.5,121.2h-4.1c0.1,0.5,0.2,0.9,0.5,1.2s0.7,0.4,1.1,0.4c0.4,0,0.7-0.1,0.9-0.2c0.2-0.1,0.4-0.3,0.6-0.6
					l1,0.5c-0.2,0.4-0.5,0.7-0.9,1c-0.4,0.2-0.9,0.4-1.5,0.4c-0.6,0-1.1-0.1-1.5-0.4c-0.4-0.2-0.8-0.6-1-1s-0.4-1-0.4-1.6
					c0-0.6,0.1-1.1,0.4-1.6s0.6-0.8,1-1c0.4-0.2,0.9-0.4,1.4-0.4c0.5,0,1,0.1,1.4,0.3c0.4,0.2,0.7,0.5,0.9,0.9s0.3,0.8,0.3,1.3
					C36.6,120.8,36.5,121,36.5,121.2z M32.9,119.3c-0.3,0.2-0.4,0.6-0.5,1.1h3c0-0.5-0.2-0.8-0.4-1c-0.2-0.2-0.6-0.4-1-0.4
					S33.2,119,32.9,119.3z"/>
				<path class="st12" d="M47.4,118.5c0.4,0.4,0.6,0.9,0.6,1.6v3.7h-1.2v-3.3c0-1-0.4-1.5-1.2-1.5c-0.4,0-0.8,0.1-1.1,0.4
					c-0.3,0.3-0.5,0.7-0.5,1.3v3h-1.2v-5.6h1.1l0.1,1c0.2-0.4,0.4-0.6,0.8-0.8c0.3-0.2,0.7-0.3,1.1-0.3
					C46.5,117.9,47,118.1,47.4,118.5z"/>
				<path class="st12" d="M59.8,122.8l-0.1,0.8c-0.2,0.1-0.4,0.1-0.7,0.1c-0.3,0-0.6-0.1-0.8-0.2c-0.2-0.1-0.4-0.3-0.4-0.6
					c-0.2,0.3-0.4,0.5-0.8,0.6c-0.3,0.1-0.7,0.2-1,0.2c-0.6,0-1-0.1-1.3-0.4c-0.3-0.3-0.5-0.6-0.5-1.1c0-0.4,0.1-0.8,0.4-1
					s0.7-0.5,1.2-0.6l2-0.4v-0.2c0-0.4-0.1-0.7-0.3-0.9s-0.5-0.3-0.9-0.3c-0.7,0-1.2,0.3-1.4,1l-1-0.4c0.1-0.5,0.4-0.8,0.9-1.1
					s1-0.4,1.6-0.4c0.7,0,1.3,0.2,1.7,0.5c0.4,0.3,0.6,0.8,0.6,1.5v2.5c0,0.3,0.1,0.4,0.4,0.4C59.6,122.9,59.7,122.9,59.8,122.8z
					 M57.4,122.6c0.3-0.2,0.4-0.5,0.4-0.9v-0.5l-1.4,0.3c-0.3,0.1-0.6,0.2-0.7,0.3c-0.2,0.1-0.2,0.3-0.2,0.5c0,0.2,0.1,0.4,0.2,0.5
					c0.2,0.1,0.4,0.2,0.6,0.2C56.8,122.9,57.1,122.8,57.4,122.6z"/>
				<path class="st12" d="M70.1,118.3c0.4,0.2,0.7,0.6,0.9,1c0.2,0.4,0.3,1,0.3,1.6c0,0.6-0.1,1.1-0.3,1.6c-0.2,0.4-0.5,0.8-0.9,1
					c-0.4,0.2-0.8,0.4-1.3,0.4c-0.4,0-0.8-0.1-1.2-0.3c-0.3-0.2-0.6-0.5-0.8-0.9l-0.1,1.1h-1.1v-8.2h1.2v3.5
					c0.2-0.3,0.4-0.6,0.7-0.8c0.3-0.2,0.7-0.3,1.1-0.3C69.3,117.9,69.7,118.1,70.1,118.3z M69.7,122.3c0.3-0.3,0.4-0.8,0.4-1.4
					c0-0.6-0.1-1.1-0.4-1.4c-0.3-0.3-0.7-0.5-1.1-0.5c-0.5,0-0.9,0.2-1.1,0.5c-0.3,0.4-0.4,0.8-0.4,1.4s0.1,1.1,0.4,1.4
					s0.7,0.5,1.1,0.5C69,122.8,69.4,122.7,69.7,122.3z"/>
				<path class="st12" d="M78.7,122.1c0,0.3,0,0.5,0.1,0.6c0.1,0.1,0.3,0.2,0.5,0.2c0.1,0,0.3,0,0.4,0c0.1,0,0.2-0.1,0.3-0.1
					l-0.1,0.9c-0.3,0.1-0.6,0.2-0.9,0.2c-0.5,0-0.9-0.1-1.1-0.4c-0.2-0.3-0.4-0.7-0.4-1.2v-6.7h1.2V122.1z"/>
				<path class="st12" d="M85.8,116.9c-0.1-0.1-0.2-0.3-0.2-0.6c0-0.2,0.1-0.4,0.2-0.6c0.1-0.1,0.3-0.2,0.6-0.2s0.5,0.1,0.6,0.2
					s0.2,0.3,0.2,0.6c0,0.2-0.1,0.4-0.2,0.6s-0.3,0.2-0.6,0.2S86,117,85.8,116.9z M87,123.7h-1.2v-5.6H87V123.7z"/>
				<path class="st12" d="M98.2,118.5c0.4,0.4,0.6,0.9,0.6,1.6v3.7h-1.2v-3.3c0-1-0.4-1.5-1.2-1.5c-0.4,0-0.8,0.1-1.1,0.4
					c-0.3,0.3-0.5,0.7-0.5,1.3v3h-1.2v-5.6h1.1l0.1,1c0.2-0.4,0.4-0.6,0.8-0.8c0.3-0.2,0.7-0.3,1.1-0.3
					C97.3,117.9,97.8,118.1,98.2,118.5z"/>
				<path class="st12" d="M109.7,118c-0.2,0.1-0.3,0.3-0.4,0.6c0.4,0.4,0.6,0.8,0.6,1.3c0,0.6-0.2,1-0.7,1.4c-0.4,0.4-1,0.5-1.8,0.5
					c-0.3,0-0.6,0-0.8-0.1c-0.4,0.1-0.6,0.3-0.6,0.6c0,0.4,0.3,0.6,0.8,0.6h1.7c0.6,0,1,0.1,1.3,0.4c0.3,0.3,0.5,0.6,0.5,1
					c0,0.6-0.3,1-0.8,1.4s-1.2,0.5-2,0.5c-0.9,0-1.6-0.1-2-0.4c-0.5-0.3-0.7-0.6-0.7-1.1c0-0.3,0.1-0.5,0.2-0.7
					c0.2-0.2,0.4-0.3,0.7-0.4c-0.5-0.2-0.7-0.5-0.7-1c0-0.2,0.1-0.5,0.2-0.7c0.1-0.2,0.4-0.3,0.6-0.4c-0.3-0.2-0.5-0.4-0.7-0.6
					c-0.2-0.3-0.2-0.6-0.2-0.9c0-0.6,0.2-1,0.7-1.4s1-0.5,1.8-0.5c0.5,0,0.9,0.1,1.3,0.2c0.1-0.4,0.2-0.7,0.5-1
					c0.3-0.2,0.7-0.4,1.1-0.3l0.2,0.9C110.2,117.8,109.9,117.8,109.7,118z M106.6,123.8c-0.2,0-0.4,0.1-0.5,0.2s-0.2,0.3-0.2,0.4
					c0,0.2,0.2,0.4,0.5,0.6c0.3,0.1,0.7,0.2,1.3,0.2c0.6,0,1-0.1,1.4-0.2c0.3-0.2,0.5-0.4,0.5-0.6c0-0.2-0.1-0.3-0.2-0.4
					c-0.1-0.1-0.4-0.1-0.7-0.1H106.6z M108.4,120.6c0.2-0.2,0.3-0.5,0.3-0.8s-0.1-0.6-0.3-0.8c-0.2-0.2-0.5-0.3-0.9-0.3
					c-0.3,0-0.6,0.1-0.9,0.3c-0.2,0.2-0.3,0.5-0.3,0.8s0.1,0.6,0.3,0.8c0.2,0.2,0.5,0.3,0.9,0.3
					C107.9,120.9,108.1,120.8,108.4,120.6z"/>
				<path class="st12" d="M125.2,123.5c-0.5-0.2-0.8-0.5-1.1-0.9l0.8-0.7c0.2,0.3,0.4,0.6,0.7,0.7c0.3,0.2,0.7,0.3,1.1,0.3
					c0.3,0,0.6-0.1,0.8-0.2s0.3-0.3,0.3-0.5c0-0.2-0.1-0.3-0.2-0.4c-0.1-0.1-0.3-0.2-0.5-0.2l-1.2-0.2c-0.6-0.1-1-0.3-1.3-0.6
					c-0.3-0.3-0.4-0.6-0.4-1c0-0.3,0.1-0.6,0.3-0.9s0.5-0.5,0.8-0.6c0.4-0.2,0.8-0.2,1.2-0.2c0.6,0,1,0.1,1.4,0.3
					c0.4,0.2,0.7,0.5,0.9,0.9l-0.8,0.7c-0.1-0.3-0.4-0.5-0.6-0.7c-0.3-0.2-0.6-0.2-0.9-0.2c-0.4,0-0.6,0.1-0.8,0.2
					c-0.2,0.1-0.3,0.3-0.3,0.5c0,0.2,0.1,0.3,0.2,0.4c0.1,0.1,0.3,0.2,0.6,0.3l1.3,0.3c0.5,0.1,0.9,0.3,1.1,0.5
					c0.2,0.2,0.3,0.6,0.3,0.9c0,0.5-0.2,1-0.6,1.3c-0.4,0.3-1,0.5-1.7,0.5C126.2,123.8,125.7,123.7,125.2,123.5z"/>
				<path class="st12" d="M139.3,118.3c0.4,0.2,0.8,0.6,1,1s0.4,1,0.4,1.6c0,0.6-0.1,1.1-0.4,1.6s-0.6,0.8-1,1
					c-0.4,0.2-0.9,0.4-1.5,0.4s-1-0.1-1.5-0.4c-0.4-0.2-0.8-0.6-1-1s-0.4-1-0.4-1.6c0-0.6,0.1-1.1,0.4-1.6s0.6-0.8,1-1
					c0.4-0.2,0.9-0.4,1.5-0.4S138.8,118.1,139.3,118.3z M136.6,119.4c-0.3,0.3-0.4,0.8-0.4,1.5c0,0.6,0.1,1.1,0.4,1.5
					c0.3,0.3,0.7,0.5,1.2,0.5c0.5,0,0.9-0.2,1.2-0.5s0.4-0.8,0.4-1.5c0-0.6-0.1-1.1-0.4-1.5s-0.7-0.5-1.2-0.5
					C137.3,118.9,136.9,119.1,136.6,119.4z"/>
				<path class="st12" d="M148,122.1c0,0.3,0,0.5,0.1,0.6c0.1,0.1,0.3,0.2,0.5,0.2c0.1,0,0.3,0,0.3,0c0.1,0,0.2-0.1,0.4-0.1
					l-0.1,0.9c-0.3,0.1-0.6,0.2-0.9,0.2c-0.5,0-0.9-0.1-1.1-0.4s-0.4-0.7-0.4-1.2v-6.7h1.2V122.1z"/>
				<path class="st12" d="M155.7,123.3c-0.4-0.3-0.6-0.8-0.6-1.5v-3.7h1.2v3.4c0,0.5,0.1,0.8,0.3,1c0.2,0.2,0.5,0.3,0.9,0.3
					s0.8-0.1,1-0.4c0.3-0.3,0.4-0.7,0.4-1.3v-3.1h1.2v5.6h-1.1l-0.1-0.9c-0.4,0.7-1,1-2,1C156.5,123.8,156.1,123.6,155.7,123.3z"/>
				<path class="st12" d="M170.5,123.3c-0.4,0.3-0.9,0.5-1.5,0.5c-0.5,0-1-0.1-1.3-0.4c-0.3-0.3-0.5-0.7-0.5-1.2V119h-1.1v-0.9h1.1
					v-1.3l1.2-0.3v1.7h1.9v0.9h-1.9v3c0,0.3,0.1,0.5,0.2,0.6c0.1,0.1,0.3,0.2,0.6,0.2c0.4,0,0.7-0.1,0.9-0.4L170.5,123.3z"/>
				<path class="st12" d="M176.4,116.9c-0.1-0.1-0.2-0.3-0.2-0.6c0-0.2,0.1-0.4,0.2-0.6c0.1-0.1,0.3-0.2,0.6-0.2s0.5,0.1,0.6,0.2
					s0.2,0.3,0.2,0.6c0,0.2-0.1,0.4-0.2,0.6s-0.3,0.2-0.6,0.2S176.5,117,176.4,116.9z M177.6,123.7h-1.2v-5.6h1.2V123.7z"/>
				<path class="st12" d="M188.1,118.3c0.4,0.2,0.8,0.6,1,1s0.4,1,0.4,1.6c0,0.6-0.1,1.1-0.4,1.6s-0.6,0.8-1,1
					c-0.4,0.2-0.9,0.4-1.5,0.4s-1-0.1-1.5-0.4c-0.4-0.2-0.8-0.6-1-1s-0.4-1-0.4-1.6c0-0.6,0.1-1.1,0.4-1.6s0.6-0.8,1-1
					c0.4-0.2,0.9-0.4,1.5-0.4S187.7,118.1,188.1,118.3z M185.5,119.4c-0.3,0.3-0.4,0.8-0.4,1.5c0,0.6,0.1,1.1,0.4,1.5
					c0.3,0.3,0.7,0.5,1.2,0.5c0.5,0,0.9-0.2,1.2-0.5s0.4-0.8,0.4-1.5c0-0.6-0.1-1.1-0.4-1.5s-0.7-0.5-1.2-0.5
					C186.2,118.9,185.8,119.1,185.5,119.4z"/>
				<path class="st12" d="M200.3,118.5c0.4,0.4,0.6,0.9,0.6,1.6v3.7h-1.2v-3.3c0-1-0.4-1.5-1.2-1.5c-0.4,0-0.8,0.1-1.1,0.4
					c-0.3,0.3-0.5,0.7-0.5,1.3v3h-1.2v-5.6h1.1l0.1,1c0.2-0.4,0.4-0.6,0.8-0.8s0.7-0.3,1.1-0.3C199.4,117.9,199.9,118.1,200.3,118.5
					z"/>
				<path class="st12" d="M208.1,123.5c-0.5-0.2-0.8-0.5-1.1-0.9l0.8-0.7c0.2,0.3,0.4,0.6,0.7,0.7c0.3,0.2,0.7,0.3,1.1,0.3
					c0.3,0,0.6-0.1,0.8-0.2s0.3-0.3,0.3-0.5c0-0.2-0.1-0.3-0.2-0.4c-0.1-0.1-0.3-0.2-0.5-0.2l-1.2-0.2c-0.6-0.1-1-0.3-1.3-0.6
					c-0.3-0.3-0.4-0.6-0.4-1c0-0.3,0.1-0.6,0.3-0.9s0.5-0.5,0.8-0.6c0.4-0.2,0.8-0.2,1.2-0.2c0.6,0,1,0.1,1.4,0.3
					c0.4,0.2,0.7,0.5,0.9,0.9l-0.8,0.7c-0.1-0.3-0.4-0.5-0.6-0.7c-0.3-0.2-0.6-0.2-0.9-0.2c-0.4,0-0.6,0.1-0.8,0.2
					c-0.2,0.1-0.3,0.3-0.3,0.5c0,0.2,0.1,0.3,0.2,0.4c0.1,0.1,0.3,0.2,0.6,0.3l1.3,0.3c0.5,0.1,0.9,0.3,1.1,0.5s0.3,0.6,0.3,0.9
					c0,0.5-0.2,1-0.6,1.3c-0.4,0.3-1,0.5-1.7,0.5C209.1,123.8,208.5,123.7,208.1,123.5z"/>
			</g>
		</g>
	</g>
	<g>
		<g>
			<g>
				<g>
					<g>
						<g>
							<g>
								<g>
									<path class="st12" d="M129.5,94.5l0.1,1.1c0.7-0.8,1.6-1.3,2.8-1.3c1.2,0,2.1,0.5,2.6,1.5c0.7-1,1.6-1.5,2.9-1.5
										c1,0,1.8,0.3,2.3,0.9c0.5,0.6,0.8,1.5,0.8,2.7v6.1h-2.6V98c0-0.5-0.1-0.9-0.3-1.2c-0.2-0.3-0.6-0.4-1.1-0.4
										c-0.8,0-1.3,0.4-1.6,1.1l0,6.6h-2.6V98c0-0.6-0.1-1-0.3-1.2c-0.2-0.2-0.6-0.4-1.1-0.4c-0.7,0-1.3,0.3-1.6,0.9v6.8h-2.6
										v-9.6H129.5z"/>
								</g>
							</g>
							<g>
								<g>
									<path class="st12" d="M156.4,104.3c-1.4,0-2.6-0.4-3.4-1.3c-0.9-0.9-1.3-2-1.3-3.5v-0.2c0-1,0.2-1.8,0.6-2.6
										c0.4-0.8,0.9-1.3,1.6-1.8c0.7-0.4,1.5-0.6,2.3-0.6c1.3,0,2.4,0.4,3.1,1.2c0.8,0.8,1.1,2,1.1,3.5v1h-6.1
										c0.1,0.6,0.3,1.1,0.8,1.5c0.4,0.4,0.9,0.6,1.6,0.6c1,0,1.8-0.4,2.3-1.1l1.3,1.4c-0.4,0.5-0.9,1-1.6,1.3
										S157.2,104.3,156.4,104.3z M156.1,96.4c-0.5,0-0.9,0.2-1.2,0.5c-0.3,0.3-0.5,0.8-0.6,1.5h3.6v-0.2c0-0.6-0.2-1-0.5-1.3
										C157,96.6,156.6,96.4,156.1,96.4z"/>
								</g>
							</g>
							<g>
								<g>
									<path class="st12" d="M170.5,99.3c0-1.5,0.3-2.7,1-3.6c0.7-0.9,1.6-1.3,2.8-1.3c0.9,0,1.7,0.4,2.3,1v-4.9h2.6v13.7h-2.3
										l-0.1-1c-0.6,0.8-1.5,1.2-2.5,1.2c-1.1,0-2-0.4-2.7-1.3S170.5,100.8,170.5,99.3z M173.1,99.4c0,0.9,0.2,1.6,0.5,2.1
										c0.3,0.5,0.8,0.7,1.4,0.7c0.8,0,1.4-0.3,1.7-1v-3.8c-0.3-0.7-0.9-1-1.7-1C173.7,96.4,173.1,97.4,173.1,99.4z"/>
								</g>
							</g>
							<g>
								<g>
									<path class="st12" d="M190.2,92c0-0.4,0.1-0.7,0.4-1c0.3-0.2,0.6-0.4,1.1-0.4c0.4,0,0.8,0.1,1,0.4c0.3,0.2,0.4,0.6,0.4,1
										c0,0.4-0.1,0.7-0.4,1c-0.3,0.2-0.6,0.4-1,0.4c-0.4,0-0.8-0.1-1-0.4C190.4,92.7,190.2,92.4,190.2,92z M193,104.1h-2.6v-9.6
										h2.6V104.1z"/>
								</g>
							</g>
							<g>
								<g>
									<path class="st12" d="M209.8,104.1c-0.1-0.2-0.2-0.5-0.3-0.9c-0.6,0.7-1.4,1-2.4,1c-0.9,0-1.7-0.3-2.3-0.8
										c-0.6-0.5-0.9-1.2-0.9-2.1c0-1,0.4-1.8,1.1-2.3c0.8-0.5,1.8-0.8,3.3-0.8h1.2v-0.6c0-0.4-0.1-0.8-0.3-1.1
										c-0.2-0.3-0.6-0.4-1.1-0.4c-0.4,0-0.8,0.1-1,0.3c-0.2,0.2-0.4,0.5-0.4,0.9H204c0-0.6,0.2-1.1,0.5-1.5
										c0.3-0.5,0.8-0.8,1.5-1.1c0.6-0.3,1.3-0.4,2.1-0.4c1.2,0,2.1,0.3,2.8,0.9c0.7,0.6,1,1.4,1,2.5v4.2c0,0.9,0.1,1.6,0.4,2.1
										v0.2H209.8z M207.6,102.3c0.4,0,0.7-0.1,1-0.3c0.3-0.2,0.6-0.4,0.7-0.7v-1.7h-1c-1.3,0-2,0.4-2.1,1.3l0,0.2
										c0,0.3,0.1,0.6,0.3,0.8C206.9,102.2,207.3,102.3,207.6,102.3z"/>
								</g>
							</g>
						</g>
					</g>
					<path class="st12" d="M104.7,37.8c13,0,14.5,4.5,14.5,4.5s-8.7-0.3-14.5,9.6C99,42,90.2,42.3,90.2,42.3S91.7,37.8,104.7,37.8z"
						/>
					<g>
						<g>
							<path class="st12" d="M219.4,84.8l-9.4-9.4v2c-0.8,0.7-1.6,1.4-2.4,1.7c-1,0.5-2.2,0.8-3.6,0.8c-2.5,0-4.6-0.9-6.1-2.8
								c-1.6-2-2.4-5.2-2.4-9.5c0-4.3,0.8-7.5,2.4-9.5c1.5-1.9,3.6-2.8,6.1-2.8c1.4,0,2.6,0.3,3.6,0.8c0.7,0.3,1.3,0.8,2.1,1.5v2.4
								l1.2-1.2c0,0,0,0,0,0l7.2-7.2c0,0,0,0,0,0l1-1l-2,0c-1.6-1.5-3.3-2.6-5.2-3.4c-2.3-0.9-4.9-1.4-7.9-1.4
								c-2.4,0-4.6,0.4-6.9,1.1c-2.2,0.7-4.3,1.9-6.1,3.5c-1.9,1.6-3.4,3.9-4.5,6.8c-1.1,2.9-1.7,6.4-1.7,10.5
								c0,4.1,0.6,7.6,1.7,10.5c1.1,2.9,2.6,5.2,4.5,6.8c1.9,1.7,3.9,2.9,6.1,3.6s4.5,1.1,6.9,1.1c5.1,0,9.4-1.6,12.9-4.7
								L219.4,84.8z"/>
						</g>
						<g>
							<path class="st12" d="M85.9,61.4c-1.8,0-3.3,1.5-3.3,3.3c0,1.8,1.5,3.3,3.3,3.3c1.8,0,3.3-1.5,3.3-3.3
								C89.2,62.9,87.7,61.4,85.9,61.4z"/>
						</g>
						<g>
							<path class="st12" d="M123.5,61.4c-1.8,0-3.3,1.5-3.3,3.3c0,1.8,1.5,3.3,3.3,3.3c1.8,0,3.3-1.5,3.3-3.3
								C126.8,62.9,125.3,61.4,123.5,61.4z"/>
						</g>
						<g>
							<g>
								<path class="st12" d="M140.7,51.5l5.8-5.8h-5.8h0h-17l0,0c-10,0-15.6,4.9-16.7,14.4h-4.2c-1.1-9.6-6.8-14.4-16.9-14.4
									c0,0,0,0,0,0v0h-17h0h-5.8l5.8,5.8v12.1c0,0.1,0,0.3,0,0.4v39.9h9V82.2h8.1c9.6,0,15.1-4.3,16.7-12.9h4.2v34.6h9V82.2h8.1
									c11.4,0,17.1-6.1,17.1-18.2c0-1.2-0.1-2.3-0.2-3.4V51.5z M92.6,70.9c-1.2,1.6-3.5,2.4-6.7,2.4h-8.1V64
									c0-3.2,0.5-5.6,1.5-6.9c1.2-1.6,3.4-2.5,6.6-2.5c3.2,0,5.4,0.8,6.6,2.5c1,1.3,1.5,3.7,1.5,6.9
									C94.1,67.2,93.6,69.5,92.6,70.9z M130.5,70.9c-1.2,1.6-3.5,2.4-6.7,2.4h-8.1V64c0-3.2,0.5-5.6,1.5-6.9
									c1.2-1.6,3.4-2.5,6.6-2.5c3.2,0,5.4,0.8,6.6,2.5c1,1.3,1.5,3.7,1.5,6.9C132,67.2,131.5,69.5,130.5,70.9z"/>
							</g>
						</g>
						<g>
							<path class="st12" d="M63.3,63.6v-2.5C63.3,51,57.2,46,45,46c-3.7,0-6.7,0.4-9,1.3c-1.9,0.7-3.6,1.9-5.3,3.5l-2.3,0l9,9v-2.2
								c0.8-0.8,1.7-1.4,2.5-1.7c1.2-0.5,2.8-0.8,4.7-0.8c2.8,0,4.9,0.5,6.1,1.6c1.2,1.1,1.8,2.8,1.8,5.1v2.1H42.5
								c-4.8,0-8.4,1.2-10.9,3.5c-2.5,2.3-3.7,5.3-3.7,8.9c0,3.9,1.2,7.2,3.5,9.6c1.6,1.6,3.7,2.7,6.3,3.3c0.3,0.1,1.3,0.2,2,0.2
								c2.5,0,7.6-0.9,7.6-8.6c-0.8,0.1-1.8,0.2-3,0.2c-2,0-3.6-0.4-4.6-1.3c-1-0.9-1.6-2.1-1.6-3.6c0-3.2,2-4.8,6-4.8h3.1h5.3h0
								v2.3c0,0.2,0,0.3,0,0.5V80h0v9.3h3.8c0.1,0,0.1,0,0.2,0c0,0,0,0,0,0h6.7V71.7l4.1-4.1L63.3,63.6z"/>
						</g>
						<g>
							<path class="st12" d="M179.1,63.6v-2.5C179.1,51,173,46,160.8,46c-3.7,0-6.7,0.4-9,1.3c-1.9,0.7-3.6,1.9-5.3,3.5l-2.3,0l9,9
								v-2.2c0.8-0.8,1.7-1.4,2.5-1.7c1.2-0.5,2.8-0.8,4.7-0.8c2.8,0,4.9,0.5,6.1,1.6c1.2,1.1,1.8,2.8,1.8,5.1v2.1h-10.1
								c-4.8,0-8.4,1.2-10.9,3.5c-2.5,2.3-3.7,5.3-3.7,8.9c0,3.9,1.2,7.2,3.5,9.6c1.6,1.6,3.7,2.7,6.2,3.3c0.3,0.1,1.3,0.2,2,0.2
								c2.5,0,7.6-0.9,7.6-8.6c-0.8,0.1-1.8,0.2-3,0.2c-2,0-3.6-0.4-4.6-1.3c-1-0.9-1.6-2.1-1.6-3.6c0-3.2,2-4.8,6-4.8h3.1h5.3h0
								v2.3c0,0.2,0,0.3,0,0.5V80h0v9.3h3.8c0.1,0,0.1,0,0.2,0c0,0,0,0,0,0h6.7V71.7l4.1-4.1L179.1,63.6z"/>
						</g>
					</g>
				</g>
				<g>
					<g>
						<g>
							<path class="st12" d="M217.8,38.3c0.5,0.3,0.9,0.7,1.2,1.2c0.3,0.5,0.4,1,0.4,1.6c0,0.6-0.1,1.1-0.4,1.6
								c-0.3,0.5-0.7,0.9-1.2,1.2c-0.5,0.3-1.1,0.4-1.7,0.4c-0.6,0-1.1-0.1-1.6-0.4c-0.5-0.3-0.9-0.7-1.2-1.2
								c-0.3-0.5-0.4-1-0.4-1.6c0-0.6,0.1-1.1,0.4-1.6s0.7-0.9,1.2-1.2c0.5-0.3,1-0.4,1.7-0.4C216.7,37.8,217.3,38,217.8,38.3z
								 M217.4,43.2c0.4-0.2,0.7-0.5,0.9-0.9c0.2-0.4,0.3-0.8,0.3-1.2c0-0.5-0.1-0.9-0.3-1.2c-0.2-0.4-0.5-0.7-0.9-0.9
								c-0.4-0.2-0.8-0.3-1.3-0.3c-0.5,0-0.9,0.1-1.3,0.3c-0.4,0.2-0.7,0.5-0.9,0.9c-0.2,0.4-0.3,0.8-0.3,1.2c0,0.5,0.1,0.9,0.3,1.2
								c0.2,0.4,0.5,0.7,0.9,0.9c0.4,0.2,0.8,0.3,1.2,0.3C216.6,43.6,217,43.5,217.4,43.2z M217.4,41.1c-0.1,0.2-0.2,0.3-0.4,0.4
								l0.6,1h-0.9l-0.5-0.8h0h-0.5v0.8h-0.8v-3.1h1.3c0.4,0,0.7,0.1,1,0.3c0.2,0.2,0.3,0.5,0.3,0.8C217.5,40.8,217.5,41,217.4,41.1
								z M215.7,41.1h0.5c0.2,0,0.3,0,0.4-0.1c0.1-0.1,0.1-0.2,0.1-0.4c0-0.2,0-0.3-0.1-0.4c-0.1-0.1-0.2-0.1-0.4-0.1h-0.5V41.1z"/>
						</g>
					</g>
				</g>
			</g>
		</g>
	</g>
</g>
</svg>
